<svg width="500" height="500" viewBox="0 0 500 500" fill="none" xmlns="http://www.w3.org/2000/svg">
<rect width="500" height="500" fill="#DDECF7"/>
<g filter="url(#filter0_d)">
<path d="M245.867 350.27C246.759 351.283 247.438 352.144 248.198 352.914C250.043 354.641 251.404 356.819 252.147 359.234C252.89 361.648 252.989 364.215 252.435 366.679C251.009 373.83 249.489 380.968 247.874 388.092C247.339 390.573 245.981 392.799 244.019 394.41C242.058 396.021 239.609 396.922 237.07 396.965C231.162 397.097 225.618 398.09 220.581 401.422C220.182 401.718 219.707 401.894 219.211 401.928C218.716 401.962 218.221 401.853 217.785 401.614C217.35 401.375 216.992 401.016 216.755 400.58C216.517 400.144 216.41 399.649 216.446 399.153C216.517 397.33 215.706 397.604 214.622 397.928C212.208 398.616 209.901 399.639 207.771 400.966C204.953 402.719 203.048 401.888 202.703 398.637C202.582 397.371 201.893 397.725 201.305 397.867C198.659 398.51 196.148 399.614 193.886 401.129C193.401 401.534 192.802 401.782 192.172 401.838C191.541 401.894 190.909 401.756 190.359 401.443C189.062 400.703 188.94 399.417 189.194 398.14C190.481 391.344 193.248 385.317 198.396 380.516C201.567 377.626 205.644 375.925 209.93 375.704C212.869 375.461 214.764 374.266 215.463 371.328C215.848 369.708 216.477 368.128 216.75 366.497C217.49 362.617 215.798 359.629 211.906 357.907C211.754 359.872 212.635 361.544 213.163 363.266C213.578 364.603 213.892 365.828 212.798 366.953C211.703 368.077 210.396 367.824 209.088 367.479C206.985 366.893 204.984 365.984 203.159 364.785C203.184 365.364 203.033 365.938 202.728 366.43C202.423 366.923 201.976 367.314 201.447 367.55C200.373 367.879 199.226 367.879 198.153 367.55C195.538 366.981 193.103 365.781 191.059 364.056C190.461 367.368 188.829 368.107 185.859 366.71C177.61 362.658 173.353 354.058 174.711 344.425C175.421 338.969 176.956 333.651 179.262 328.654C179.373 328.421 179.606 328.188 179.262 327.793C178.562 328.077 178.248 328.806 177.883 329.363C176.451 331.394 174.55 333.051 172.341 334.192C170.132 335.332 167.681 335.924 165.195 335.917C161.921 335.917 158.647 336.17 155.374 336.19C154.137 336.19 153.712 336.636 153.489 337.821C152.517 343.509 152.991 349.35 154.867 354.808C155.06 355.405 155.293 355.983 155.475 356.58C156.215 359.062 154.462 360.966 151.989 360.379C150.841 360.104 149.719 359.731 148.634 359.265C147.54 358.819 146.516 358.252 145.462 357.705C144.205 360.5 143.496 360.814 140.455 360.227C137.862 359.675 135.433 358.527 133.361 356.874C132.348 360.237 130.908 360.835 127.817 359.244C119.882 355.193 116.558 348.436 116.669 339.756C116.844 333.75 118.262 327.845 120.835 322.415C123.49 316.499 128.263 313.551 134.709 313.389C138.692 313.298 142.675 313.278 146.648 313.389C148.258 313.44 149.859 313.123 151.329 312.463C152.799 311.803 154.099 310.818 155.131 309.581C159.833 304.354 162.347 298.044 163.603 291.247C164.12 288.411 162.732 285.656 162.316 282.84C161.232 275.537 160.664 268.173 159.914 260.829C159.114 253.019 158.445 245.19 157.685 237.025C155.212 239.385 152.901 241.543 150.59 243.751C143.232 250.842 135.945 258.114 128.507 265.164C124.398 269.223 119.406 272.279 113.921 274.092C108.436 275.905 102.606 276.427 96.886 275.618C93.6327 275.233 90.3592 274.969 87.1465 274.382C82.0284 273.43 78.542 270.33 76.4745 265.62C75.9374 264.405 75.461 263.179 74.9746 261.953C74.6025 261.196 74.4526 260.349 74.5423 259.51C74.632 258.671 74.9575 257.875 75.4813 257.213C75.819 256.792 76.0383 256.288 76.1166 255.754C76.195 255.22 76.1296 254.675 75.9272 254.174C75.2583 251.196 74.0016 248.36 73.9611 245.24C73.9114 243.732 74.2981 242.242 75.0747 240.949C75.8513 239.655 76.9848 238.613 78.3393 237.947C80.162 236.927 82.0513 236.03 83.9945 235.263C85.4438 234.696 85.6465 233.906 85.16 232.548C84.5418 230.847 84.1465 229.054 83.5689 227.362C82.9373 225.927 82.7305 224.34 82.973 222.791C83.2155 221.242 83.8971 219.795 84.9371 218.621C82.4031 218.949 79.8505 219.111 77.2954 219.107C70.4747 218.692 63.7351 217.506 56.9549 216.726C52.3942 216.2 47.8336 215.714 43.3033 214.822C39.4027 214.051 35.8809 211.976 33.3169 208.938C30.753 205.901 29.2995 202.082 29.1957 198.109C29.1247 191.15 29.3173 184.161 30.9085 177.334C32.5458 170.489 36.4804 164.412 42.0567 160.114C52.2523 151.889 62.5088 143.725 72.826 135.622C75.6467 133.446 77.7621 130.486 78.9069 127.113C84.0148 112.487 96.0853 103.371 111.521 102.57C119.73 102.145 127.959 101.993 136.179 101.74C145.239 101.466 154.3 101 163.36 101C189.376 100.899 212.179 120.246 216.517 145.944C217.804 153.541 217.439 161.229 217.723 168.876C218.22 182.733 218.737 196.58 219.669 210.406C220.226 218.509 220.683 226.673 221.818 234.716C222.912 242.627 227.473 246.648 235.419 247.499C243.364 248.35 250.823 246.82 258.455 245.595C266.38 244.329 274.296 243.012 282.343 244.511C283.316 244.592 284.274 244.803 285.19 245.139C290.42 247.854 295.751 246.608 301.051 245.595C317.196 242.556 332.084 235.982 346.77 228.892C363.553 220.788 379.941 211.804 397.19 204.652C410.284 199.223 423.693 194.898 437.729 192.781C447.112 191.294 456.642 190.954 466.107 191.768C467.321 191.9 468.452 192.449 469.307 193.321C470.162 194.192 470.689 195.334 470.796 196.55C470.904 197.766 470.586 198.982 469.897 199.99C469.209 200.998 468.191 201.737 467.019 202.08C439.28 209.17 414.926 222.895 392.295 240.003C378.451 250.467 366.897 263.118 356.408 276.934C342.503 295.248 327.179 312.387 309.169 326.77C304.538 330.467 302.876 334.6 302.399 339.938C302.236 342.44 301.897 344.928 301.386 347.383C300.271 352.063 301.913 355.902 305.095 358.961C310.416 364.076 311.582 369.951 309.818 376.9C308.349 382.693 307.284 388.589 306.068 394.453C304.893 400.085 300.717 404.056 294.859 404.228C289.001 404.4 283.427 405.423 278.37 408.705C276.505 409.921 274.316 408.553 274.316 406.244C274.316 404.967 274.062 404.724 272.796 405.089C270.249 405.806 267.813 406.873 265.559 408.259C262.833 409.961 260.705 408.867 260.756 405.697C260.756 404.461 260.137 404.846 259.62 404.978C256.906 405.627 254.322 406.733 251.979 408.249C250.692 409.11 249.435 409.445 248.128 408.503C246.82 407.561 246.901 406.264 247.195 404.907C248.594 398.434 251.249 392.65 256.083 387.971C259.661 384.527 264.059 383.261 268.782 382.754C271.042 382.511 272.552 381.559 273.14 379.27C273.495 377.862 274.042 376.494 274.387 375.076C275.613 370.062 274.306 367.135 269.654 364.805C265.693 362.904 261.972 360.541 258.566 357.765C256.251 355.957 254.231 353.801 252.577 351.374C252.208 350.632 251.575 350.056 250.802 349.758C250.029 349.46 249.173 349.462 248.401 349.763C247.702 350.006 246.952 350.087 245.867 350.27ZM195.112 348.011C195.434 347.398 195.912 346.881 196.497 346.511C197.082 346.141 197.755 345.932 198.447 345.904C199.519 346.277 200.405 347.051 200.92 348.062C200.703 351.784 201.934 355.446 204.355 358.282C204.68 358.667 205.045 359.346 205.683 359.011C206.159 358.758 205.957 358.14 205.876 357.674C205.337 354.461 205.076 351.208 205.095 347.95C205.501 346.056 205.825 344.142 206.332 342.278C206.592 340.999 207.299 339.854 208.325 339.047C209.352 338.24 210.631 337.824 211.936 337.872C215.625 337.75 219.314 337.659 223.003 337.527C225.106 337.53 227.167 336.944 228.953 335.836C233.057 333.131 234.517 328.492 233.148 322.445C233.248 320.418 233.194 318.386 232.986 316.367C232.592 310.545 231.718 304.765 230.371 299.087C230.188 298.514 230.201 297.896 230.408 297.331C230.615 296.765 231.006 296.286 231.517 295.967C231.963 295.668 232.484 295.499 233.021 295.479C233.558 295.459 234.09 295.59 234.557 295.856C235.672 296.413 235.905 297.557 236.168 298.641C237.476 303.99 237.962 309.469 238.702 314.899C238.702 316.59 238.469 318.302 239.138 319.963C239.138 322.111 239.138 324.268 239.239 326.416C239.382 328.487 239.108 330.565 238.434 332.529C237.76 334.493 236.699 336.301 235.314 337.849C233.93 339.396 232.249 340.651 230.371 341.538C228.493 342.426 226.457 342.929 224.382 343.017C223 342.934 221.617 343.152 220.328 343.655C229.516 345.426 238.942 345.597 248.188 344.162C247.651 342.359 247.074 340.718 246.668 339.037C245.178 332.959 245.584 326.882 246.668 320.804C247.094 319.396 247.519 317.988 247.935 316.58C248.158 316.155 248.401 315.729 248.584 315.294C252.85 305.306 260.33 298.732 270.313 294.792C272.208 294.043 273.708 294.306 274.812 296.109C274.918 296.547 274.933 297.002 274.858 297.447C274.782 297.891 274.617 298.315 274.372 298.694C274.128 299.073 273.809 299.398 273.435 299.65C273.062 299.902 272.641 300.076 272.198 300.161C269.356 301.125 266.694 302.556 264.323 304.395C256.945 309.834 252.506 316.995 251.695 326.243C250.721 331.746 251.501 337.415 253.925 342.45C254.189 343.141 254.49 343.817 254.827 344.476C258.708 351.435 264.688 356.064 271.711 359.467C277.579 362.313 280.934 366.669 280.569 373.435C280.295 374.722 280.012 376.008 279.748 377.295C278.37 383.949 275.096 388.437 267.586 388.67C266.15 388.669 264.733 388.991 263.438 389.611C262.143 390.232 261.005 391.136 260.107 392.255C257.766 393.906 256.438 396.307 255.171 398.799C254.999 399.143 254.796 399.71 254.958 399.943C255.262 400.409 255.82 400.126 256.286 400.014C257.514 399.547 258.799 399.247 260.107 399.123C262.803 399.204 263.634 397.472 264.323 395.426C265.813 394.413 266.583 392.721 267.85 391.475C269.806 389.541 271.357 389.612 273.069 391.881C273.161 392.563 273.088 393.257 272.857 393.905C272.626 394.553 272.244 395.137 271.742 395.608C270.384 396.867 269.342 398.429 268.701 400.166C271.184 399.802 273.383 398.9 275.735 398.839C276.171 398.839 276.444 398.444 276.657 398.08L278.552 394.879C279.464 393.866 280.336 392.762 281.278 391.749C283.437 389.45 284.917 389.521 286.863 391.941C286.928 392.632 286.83 393.328 286.576 393.974C286.323 394.62 285.921 395.197 285.403 395.659C284.473 396.685 283.606 397.767 282.809 398.9C282.706 399.032 282.632 399.184 282.592 399.346C282.552 399.509 282.547 399.678 282.576 399.842C282.799 400.318 283.285 400.085 283.67 399.964C287.481 398.758 291.434 398.677 295.366 398.465C298.629 397.988 300.079 395.801 300.697 392.843C301.994 386.573 303.23 380.283 304.629 374.033C305.521 370.032 304.811 366.689 301.812 363.721C297.22 359.173 294.717 353.805 295.731 347.12C296.744 340.434 297.758 333.952 298.852 327.317C299.866 321.24 300.94 315.101 301.984 308.993C302.997 306.086 303.524 305.742 306.443 306.147C307.913 307.16 307.811 308.73 307.852 310.199C307.396 310.982 307.165 311.876 307.183 312.782C306.778 316.033 305.501 319.153 305.795 322.496C305.734 322.323 305.663 322.171 305.48 322.404H305.784C306.534 321.787 307.305 321.179 308.034 320.541C322.923 307.467 336.578 293.053 348.827 277.481C355.749 268.841 362.154 259.776 370.11 251.946C388.272 233.966 409.159 219.927 432.094 208.805C437.78 206.05 443.689 203.802 449.476 201.279H449.425C449.851 201.279 450.276 201.279 450.509 200.844C454.472 200.064 458.151 198.382 462.529 197.278C462.135 197.24 461.739 197.223 461.343 197.228C460.867 197.228 460.381 197.228 459.894 197.228L454.513 197.167C454.097 196.987 453.647 196.899 453.193 196.909C452.74 196.92 452.295 197.028 451.888 197.228C450.418 197.278 448.949 197.228 447.499 197.37C434.599 198.532 421.908 201.393 409.757 205.878C393.866 211.571 378.887 219.228 363.837 226.754C342.776 237.289 321.838 248.147 297.879 251.925C298.893 253.05 299.805 253.951 300.656 254.964C301.508 255.977 302.318 256.99 303.149 258.003C305.523 261.754 307.457 265.764 308.916 269.955C309.595 271.981 308.977 273.511 307.355 274.108C305.734 274.706 304.376 273.845 303.565 271.839C302.693 269.682 302.146 267.372 300.646 265.499C298.001 259.887 294.332 255.228 288.484 252.584C285.387 250.896 281.953 249.916 278.431 249.717C269.867 249.039 261.546 250.73 253.215 252.361L244.864 253.374C239.371 253.374 233.868 253.526 228.547 251.794C225.119 250.46 222.09 248.27 219.75 245.433C217.713 242.349 216.441 238.825 216.041 235.152C214.409 219.856 213.477 204.511 212.788 189.145C212.352 179.279 212.078 169.403 211.774 159.527C211.984 156.043 211.838 152.548 211.338 149.094C209.815 137.266 204.008 126.406 195.016 118.567C186.024 110.728 174.471 106.454 162.539 106.551C146.03 106.734 129.53 107.595 113 108.091C99.5008 108.445 88.4437 116.427 84.1567 129.22C82.7355 133.455 80.0774 137.166 76.5252 139.876C66.2823 147.98 56.0732 156.083 45.8978 164.186C41.3574 167.853 38.013 172.269 36.6144 177.982C36.4218 178.691 36.2191 179.4 36.0265 180.12C35.1448 185.073 35.2766 189.985 34.78 194.898C33.9793 203.001 39.1177 208.978 47.2863 209.859C55.7286 210.771 64.1607 211.885 72.5625 213.07C77.9455 213.976 83.4736 213.401 88.5552 211.409C111.331 202.164 134.111 192.93 156.894 183.705C159.846 182.607 162.565 180.964 164.911 178.864C168.154 175.825 168.965 172.462 167.221 168.734C167.221 167.023 167.819 165.696 169.694 165.422C171.569 165.149 172.603 166.435 173.13 168.066C174.172 171.408 173.934 175.018 172.461 178.195C166.929 191.129 160.197 203.517 152.354 215.197C142.087 230.492 129.53 243.721 116.355 256.392C113.244 259.37 110.011 262.034 105.653 262.946C101.295 263.858 97.3319 262.794 93.1868 262.348C89.0417 261.903 85.079 261.335 80.6805 260.819C81.4608 262.45 81.6939 263.989 82.8493 265.114C83.4068 266.125 84.1944 266.991 85.1486 267.642C86.1028 268.293 87.1969 268.711 88.3424 268.861C90.9369 269.338 93.5922 269.55 96.207 269.874C107.183 271.424 116.821 268.628 124.868 260.94C132.915 253.252 140.678 245.848 148.361 238.048C155.593 230.562 164.031 224.341 173.323 219.644C176.951 217.842 180.461 215.812 183.832 213.566C190.582 209.119 195.568 203.346 197.808 195.425C198.416 193.308 199.835 192.386 201.396 192.791C203.19 193.298 203.828 194.898 203.17 197.218C201.261 203.906 197.439 209.891 192.173 214.437C188.559 217.384 184.674 219.982 180.569 222.196C175.147 225.235 169.593 227.95 164.465 231.454C164.012 231.692 163.645 232.067 163.418 232.526C163.191 232.984 163.114 233.502 163.198 234.007C163.695 239.264 164.019 244.551 164.536 249.819C165.235 256.737 165.64 263.685 166.705 270.573C166.629 272.087 166.71 273.604 166.948 275.101C167.571 281.672 168.869 288.162 170.819 294.468C173.676 304.158 178.286 313.242 184.42 321.27C184.907 321.888 185.211 322.708 186.366 322.08C188.644 321.003 191.16 320.529 193.673 320.703C197.585 320.703 201.497 320.703 205.399 320.703C206.166 320.751 206.933 320.616 207.637 320.31C208.342 320.004 208.963 319.534 209.45 318.941C209.937 318.347 210.276 317.646 210.439 316.896C210.601 316.145 210.583 315.367 210.386 314.625C209.838 311.9 209.291 309.176 208.703 306.461C208.369 304.932 208.298 303.422 209.909 302.632C211.521 301.842 213.01 302.47 213.963 304.05C214.662 307.261 215.352 310.462 216.041 313.673C216.041 314.088 216.041 314.504 216.041 314.919C216.365 321.614 211.987 326.243 205.349 326.243C201.244 326.243 197.139 326.162 193.035 326.243C189.103 326.355 185.94 327.854 184.177 331.662L183.812 332.483C181.633 337.436 180.052 342.531 180.387 348.041C180.244 349.949 180.493 351.866 181.118 353.674C181.744 355.482 182.733 357.144 184.025 358.556C184.349 354.605 184.552 351.212 185.799 348.011C185.964 347.51 186.246 347.055 186.621 346.683C186.996 346.312 187.454 346.034 187.957 345.874C188.675 345.785 189.401 345.945 190.015 346.326C190.63 346.708 191.094 347.288 191.332 347.971C191.109 352.387 191.646 356.54 195.214 359.7C194.483 355.841 194.448 351.882 195.112 348.011ZM137.344 352.589L137.435 352.67L137.324 352.6C137.081 348.548 136.391 344.567 137.324 340.546C137.627 339.94 138.11 339.441 138.707 339.119C139.303 338.796 139.984 338.665 140.658 338.743C141.169 338.848 141.641 339.093 142.021 339.45C142.4 339.808 142.672 340.265 142.807 340.769C143.141 345.104 143.993 349.196 147.945 351.911C147.396 348.122 147.189 344.291 147.327 340.465C147.6 338.956 147.813 337.426 148.138 335.947C149.009 331.997 150.965 330.457 155.029 330.427C157.816 330.427 160.603 330.214 163.391 330.325C169.157 330.569 172.887 327.783 175.218 322.749C175.421 322.303 175.562 321.827 175.796 321.412C176.058 320.935 176.171 320.389 176.119 319.847C176.066 319.305 175.851 318.791 175.502 318.373C172.376 313.426 169.758 308.176 167.688 302.703C167.475 302.156 167.465 301.457 166.826 301.143C165.813 303.169 164.799 305.256 163.786 307.312C162.772 309.368 161.11 311.191 159.833 313.177C159.476 313.4 159.138 313.65 158.82 313.926C157.183 315.686 155.178 317.065 152.949 317.965C150.719 318.865 148.319 319.263 145.918 319.133C142.026 319.031 138.135 319.082 134.243 319.133C132.43 319.151 130.667 319.724 129.19 320.774C127.713 321.825 126.594 323.302 125.983 325.008C123.614 329.955 122.342 335.355 122.253 340.84C122.206 342.792 122.549 344.733 123.262 346.551C123.976 348.369 125.045 350.026 126.409 351.425C126.074 347.434 126.885 344.202 127.635 340.961C127.864 340.403 128.215 339.904 128.663 339.499C129.11 339.094 129.642 338.794 130.219 338.621C130.903 338.577 131.583 338.749 132.163 339.113C132.743 339.476 133.194 340.013 133.452 340.647C133.452 341.964 133.381 343.301 133.513 344.608C133.837 347.656 134.669 350.553 137.304 352.589H137.344ZM159.772 191.383C160.468 190.645 160.93 189.719 161.1 188.719C158.272 189.732 155.658 190.624 153.063 191.586C152.577 191.686 152.15 191.974 151.877 192.388C151.603 192.802 151.505 193.308 151.604 193.794C152.192 196.833 152.8 199.79 153.438 203.001C154.08 202.16 154.564 201.209 154.867 200.196C156.772 197.416 158.414 194.466 159.772 191.383ZM137.304 225.823C139.761 223.041 142.001 220.075 144.003 216.949C144.839 216.318 145.488 215.471 145.878 214.498C142.837 215.075 139.797 215.612 136.868 216.2C135.5 216.473 134.557 217.132 134.841 218.762C135.297 221.528 135.733 224.283 136.209 227.18C136.493 226.876 136.685 226.694 136.847 226.491C137.01 226.288 137.152 226.045 137.304 225.823ZM93.278 256.595C94.0845 256.768 94.8999 256.896 95.7205 256.98C98.69 257.101 101.639 258.256 104.629 257.112L105.845 257.01L106.403 256.737C107.476 256.46 108.448 255.88 109.2 255.066C107.379 255.123 105.578 254.682 103.99 253.789C102.521 252.878 101.031 251.986 99.5312 251.095C98.8825 250.71 98.1934 250.234 97.4231 250.791C95.0719 252.523 92.7409 254.275 90.1768 256.18C91.1704 256.532 92.2266 256.673 93.278 256.595ZM126.956 237.491C127.632 237.099 128.135 236.466 128.365 235.719C125.122 235.719 122.162 235.719 119.243 235.719C118.169 235.719 117.216 235.891 117.054 237.106C116.7 240.814 116.436 244.541 116.041 248.877L118.068 246.709C121.162 243.771 124.125 240.699 126.956 237.491ZM224.432 392.802C226.145 392.498 227.888 392.326 229.55 391.87C232.145 391.161 234.851 391.972 237.405 391.141C238.67 391.056 239.867 390.535 240.79 389.667C241.714 388.798 242.309 387.637 242.472 386.38C244.023 379.391 245.513 372.392 246.952 365.372C247.264 363.968 247.219 362.509 246.82 361.127C246.422 359.745 245.683 358.484 244.672 357.462C242.904 355.683 241.338 353.716 239.999 351.597C239.84 351.251 239.568 350.969 239.227 350.798C238.886 350.627 238.498 350.576 238.124 350.655C234.01 351.09 229.925 350.564 225.831 350.189C221.325 349.761 216.878 348.854 212.565 347.484C211.298 347.089 211.146 347.424 210.973 348.619C210.629 350.959 212.21 351.556 213.801 352.286C219.608 354.96 222.801 359.376 222.679 365.889C222.554 366.285 222.452 366.687 222.375 367.094C221.007 377.224 218.605 379.766 208.703 381.539C208.571 381.539 208.43 381.589 208.298 381.63C205.926 382.238 203.626 382.957 202.217 385.195C199.683 386.451 198.72 388.984 197.393 391.212C197.119 391.668 196.663 392.225 197.008 392.742C197.484 393.4 198.143 392.742 198.7 392.65C199.621 392.36 200.563 392.14 201.518 391.992C202.662 392.054 203.79 391.704 204.698 391.005C205.606 390.306 206.232 389.305 206.463 388.183C207.477 386.998 208.49 385.803 209.585 384.628C211.764 382.207 213.274 382.258 215.26 384.79C215.514 386.694 214.247 387.88 213.183 389.146C212.041 390.207 211.211 391.558 210.781 393.056C212.214 392.565 213.695 392.225 215.2 392.043C218.169 391.992 219.517 390.28 220.328 387.778C221.443 386.573 222.527 385.347 223.672 384.162C225.426 382.349 226.946 382.46 228.638 384.496C228.855 385.117 228.885 385.787 228.725 386.424C228.564 387.062 228.221 387.638 227.736 388.082C226.449 389.521 225.051 390.888 224.453 392.802L224.361 392.924L224.432 392.802ZM84.1567 253.566C84.5519 253.283 84.9269 252.969 85.3425 252.726C88.8491 250.7 91.3524 248.198 90.5011 243.69C90.4785 243.009 90.5466 242.328 90.7038 241.665C91.4132 237.869 92.1159 234.071 92.8118 230.269L95.386 222.409C96.2216 221.105 96.8027 219.654 97.0988 218.134C94.8388 219.228 92.751 220.16 90.724 221.234C88.991 222.135 88.1802 223.412 88.9606 225.508C89.741 227.605 90.2376 229.753 90.8457 231.88C91.9402 235.638 90.8457 238.18 87.2985 239.912C85.4235 240.824 83.5182 241.654 81.6534 242.576C80.3967 243.194 79.3021 244.126 79.6264 245.615C80.3257 248.775 81.2176 251.885 82.0486 255.066C82.8755 254.768 83.6048 254.25 84.1567 253.566ZM105.896 218.195C104.671 223.071 104.266 228.117 104.7 233.126C109.767 226.299 114.835 220.181 120.034 214.133C124.817 209.211 129.594 204.284 134.364 199.355C134.516 199.355 134.719 199.355 134.598 199.081C134.598 199.081 134.344 199.173 134.212 199.223C134.003 199.235 133.796 199.269 133.594 199.325L109.271 209.13C108.965 209.218 108.685 209.38 108.456 209.6C108.226 209.821 108.054 210.094 107.953 210.396C106.991 212.915 106.302 215.53 105.896 218.195ZM113.314 231.758C115.625 230.452 117.966 229.611 120.561 230.057C122.498 230.321 124.455 230.409 126.409 230.32C126.915 230.346 127.421 230.266 127.894 230.084C128.366 229.903 128.796 229.624 129.154 229.266C129.513 228.907 129.792 228.478 129.973 228.005C130.155 227.533 130.235 227.027 130.209 226.521C130.192 224.708 129.964 222.903 129.53 221.143C128.243 214.741 131.466 211.014 136.726 210.527C138.742 210.276 140.739 209.894 142.705 209.383C143.593 209.191 144.429 208.809 145.155 208.264C145.881 207.718 146.481 207.022 146.911 206.222C148.492 203.528 147.175 200.925 146.79 198.301C146.597 196.944 145.979 196.924 145.016 197.795C142.797 199.821 140.445 201.685 138.276 203.751C131.306 210.288 124.74 217.243 118.615 224.577C116.74 226.866 114.693 229.033 113.314 231.758ZM98.4873 231.667C97.3926 235.488 96.6463 239.4 96.2576 243.356C96.1461 244.491 96.6225 245.098 97.8083 244.977C99.8352 244.754 101.589 245.686 103.261 246.719C104.386 247.418 105.49 248.147 106.676 248.745C108.845 249.829 110.102 249.089 110.507 246.719C111.308 242.12 110.446 237.299 112.635 232.72C112.355 232.782 112.091 232.904 111.863 233.079C111.635 233.254 111.449 233.478 111.318 233.733C109.362 236.448 107.396 239.153 105.45 241.837C104.68 242.91 103.778 243.741 102.318 243.437C101.694 243.329 101.122 243.018 100.692 242.553C100.262 242.088 99.9962 241.495 99.9366 240.864C99.8251 240.246 99.7339 239.629 99.5717 239.031C98.9535 236.833 99.4399 234.463 98.4873 231.667ZM179.414 327.601C180.062 327.135 180.914 326.77 180.701 325.767C180.701 325.686 180.437 325.544 180.387 325.575C180.078 325.814 179.83 326.121 179.661 326.473C179.492 326.825 179.407 327.211 179.414 327.601Z" fill="#090805"/>
<path d="M253.896 342.491C251.472 337.455 250.692 331.786 251.666 326.284C252.222 325.856 252.641 325.275 252.872 324.613C256.074 318.64 260.501 313.411 265.865 309.267C269.895 306.153 274.384 303.683 279.172 301.944C281.27 301.123 282.142 299.654 281.625 297.973C281.108 296.291 279.659 295.451 277.469 295.765L274.794 296.16C273.689 294.357 272.189 294.134 270.294 294.843C260.311 298.783 252.832 305.357 248.565 315.344C248.383 315.78 248.139 316.205 247.916 316.631L238.653 314.949C237.913 309.52 237.427 304.04 236.12 298.692C235.856 297.608 235.623 296.464 234.508 295.907C234.041 295.641 233.509 295.51 232.972 295.53C232.435 295.549 231.914 295.718 231.468 296.018C230.957 296.336 230.566 296.816 230.359 297.381C230.152 297.946 230.139 298.564 230.322 299.138C231.669 304.816 232.543 310.596 232.937 316.418C233.145 318.437 233.199 320.469 233.099 322.496C231.903 323.367 231.995 324.825 231.549 326.021C230.12 329.86 227.687 332.098 223.34 332.159C218.992 332.22 214.563 332.453 210.164 332.544C208.941 332.53 207.73 332.787 206.618 333.296C205.506 333.804 204.52 334.552 203.73 335.486C202.941 336.42 202.368 337.517 202.053 338.698C201.737 339.879 201.686 341.116 201.904 342.319C202.188 344.111 202.391 345.904 202.634 347.697L200.861 348.133C200.346 347.122 199.46 346.348 198.388 345.975C198.388 345.347 198.388 344.719 198.388 344.091C198.461 343.617 198.351 343.132 198.081 342.736C197.81 342.339 197.4 342.06 196.931 341.955C196.463 341.849 195.972 341.925 195.557 342.168C195.143 342.41 194.836 342.801 194.699 343.261C193.923 344.588 193.455 346.073 193.33 347.606C193.048 347.828 192.718 347.981 192.365 348.051C192.013 348.122 191.649 348.108 191.303 348.011C191.066 347.329 190.601 346.748 189.987 346.367C189.373 345.985 188.646 345.826 187.929 345.914C187.929 345.367 187.929 344.81 187.929 344.253C187.929 343.179 187.685 342.298 186.54 341.994C185.395 341.691 184.625 342.46 184.148 343.473C183.423 344.744 182.987 346.158 182.871 347.616C182.131 348.295 181.209 347.971 180.368 348.082C180.034 342.572 181.615 337.477 183.794 332.524L184.158 331.703C184.688 331.555 185.199 331.344 185.679 331.075C187.762 329.658 190.258 328.974 192.773 329.13C196.604 329.221 200.445 329.191 204.276 329.13C207.479 329.13 210.691 329.353 213.884 328.786C217.076 328.219 218.951 326.233 218.9 322.901C218.853 319.606 217.838 316.397 215.982 313.673L213.904 304.05C214.613 304.05 215.445 304.05 215.698 303.281C215.951 302.511 215.171 302.207 214.684 301.802C210.749 297.923 207.567 293.348 205.3 288.31C199.107 275.395 197.121 261.447 195.449 247.448C194.881 242.678 194.567 237.886 194.131 233.105C194.131 232.69 194.131 232.184 193.665 232.012C193.199 231.839 192.966 232.315 192.722 232.64C191.709 234.037 190.624 235.435 189.57 236.823C182.588 246.051 175.382 255.106 169.777 265.316C168.764 267.099 168.368 269.267 166.585 270.584C165.521 263.696 165.115 256.747 164.416 249.829C163.899 244.562 163.575 239.274 163.078 234.017C162.994 233.513 163.071 232.994 163.298 232.536C163.526 232.078 163.892 231.703 164.345 231.465C169.473 227.96 175.027 225.205 180.449 222.206C184.596 219.999 188.522 217.401 192.175 214.448C192.665 215.049 192.918 215.81 192.884 216.585C193.128 219.502 193.31 222.419 193.432 225.336C193.532 227.141 193.769 228.936 194.141 230.705C196.755 227.3 199.039 223.654 200.962 219.816C204.731 212.569 207.045 204.654 207.772 196.519C208.272 189.292 207.792 182.031 206.343 174.933C206.273 174.217 205.95 173.548 205.432 173.047C204.914 172.546 204.235 172.246 203.516 172.199C202.824 172.064 202.106 172.16 201.474 172.473C200.842 172.786 200.331 173.298 200.019 173.931C199.642 174.828 199.403 175.778 199.31 176.747C198.458 181.841 196.952 186.805 194.83 191.515C191.212 199.456 184.756 204.572 177.459 208.735C166.52 214.914 156.429 222.486 147.44 231.262C138.065 240.53 128.883 249.981 119.063 258.834C113.59 263.777 107.641 266.664 100.04 266.42C94.2527 266.228 88.5265 265.499 82.8105 265.063C81.6754 263.939 81.422 262.399 80.6416 260.768C85.0199 261.315 89.0738 261.862 93.148 262.298C97.2221 262.733 101.408 263.777 105.614 262.895C109.82 262.014 113.205 259.32 116.316 256.342C129.491 243.67 142.089 230.442 152.345 215.187C160.189 203.507 166.921 191.119 172.453 178.185C173.925 175.008 174.164 171.398 173.122 168.056C172.595 166.415 171.693 165.108 169.686 165.412C167.679 165.716 167.223 167.012 167.213 168.724C165.439 171.338 163.524 173.627 160.332 174.802C146.305 179.866 132.359 185.164 118.323 190.239C110.985 192.872 103.658 195.607 96.0871 197.39C94.3957 197.862 92.6147 197.915 90.8982 197.545C89.1816 197.174 87.5814 196.391 86.236 195.263C84.5623 193.67 83.3 191.696 82.5571 189.509C80.216 184.06 76.1418 180.758 70.2433 180.008C63.7571 179.208 57.2201 178.853 50.7034 178.327C45.636 177.911 40.6801 177.587 36.0283 180.12C36.2208 179.4 36.4235 178.691 36.6161 177.982C38.7748 175.44 40.5686 172.614 43.3557 170.608C55.6898 161.776 67.9427 152.781 80.3376 143.989C84.1296 141.459 86.9798 137.749 88.4454 133.434C92.0939 122.535 99.8977 116.346 110.985 113.925C115.181 113.004 119.448 113.034 123.674 112.912C129.653 112.73 135.623 111.97 141.613 112.446C139.93 116.083 140.721 120.124 143.538 122.322C143.437 122.859 143.315 123.396 143.224 123.933C142.93 125.655 143.406 126.972 145.18 127.569C146.69 128.076 147.987 127.245 148.677 125.473C148.92 124.834 148.91 124.085 149.457 123.578L149.852 122.707H149.781C151.991 121.938 153.835 120.469 156.308 120.104C159.957 119.547 163.554 118.787 167.233 118.402C175.389 117.451 183.623 119.344 190.543 123.761C198.144 128.562 202.756 135.764 206.364 143.756C208.522 148.884 210.326 154.153 211.766 159.527C212.11 169.403 212.384 179.279 212.779 189.145C213.468 204.511 214.401 219.856 216.032 235.152C216.433 238.825 217.704 242.35 219.742 245.433C221.13 251.085 224.191 255.349 229.765 257.527C230.373 259.816 230.93 262.116 231.579 264.384C232.014 266.127 233.073 267.649 234.557 268.663C236.04 269.677 237.844 270.112 239.626 269.885C241.486 269.722 243.211 268.845 244.438 267.437C245.664 266.03 246.297 264.202 246.204 262.338C246.204 261.153 246.204 259.968 246.204 258.783C249.08 258.281 251.99 257.989 254.909 257.912C256.23 261.056 257.34 264.284 258.234 267.575C260.098 273.43 264.933 276.448 270.973 275.557C276.192 274.787 280.175 269.935 280.094 264.233C280.094 261.599 279.811 258.965 279.659 256.322C282.732 256.399 285.789 256.797 288.78 257.507C288.902 259.097 289.003 260.697 289.155 262.288C289.449 265.387 290.868 267.261 293.462 268.041C296.057 268.821 298.611 267.98 300.557 265.478C302.056 267.352 302.583 269.662 303.475 271.819C304.286 273.845 305.664 274.666 307.266 274.088C308.867 273.511 309.506 271.951 308.827 269.935C307.395 265.755 305.491 261.752 303.151 258.003C303.698 257.922 304.256 257.871 304.803 257.76C323.411 253.82 340.538 246.122 357.048 236.955C370.385 229.55 383.398 221.599 397.182 214.934C407.734 209.687 418.712 205.343 429.998 201.948C437.313 199.901 444.764 198.374 452.295 197.38L454.534 197.147L459.926 197.228C459.468 197.548 458.925 197.725 458.365 197.734C440.68 201.047 423.512 206.04 407.316 213.941C389.013 222.916 373.314 235.324 359.521 250.305C349.386 261.336 340.265 273.217 330.302 284.4C323.096 292.503 315.445 300.049 306.465 306.198C303.546 305.793 303.019 306.137 302.006 309.044C292.722 309.925 286.692 315.061 283.125 323.438C281.047 328.3 279.689 333.466 277.135 338.135C272.595 346.451 263.129 348.629 255.416 343.129C254.998 342.747 254.461 342.522 253.896 342.491ZM187.209 138.225C187.736 137.567 187.391 136.898 187.209 136.199C186.45 132.998 184.935 130.025 182.79 127.529C181.577 126.132 180.097 124.993 178.435 124.178C176.774 123.364 174.967 122.89 173.119 122.786C171.272 122.683 169.422 122.95 167.68 123.573C165.938 124.197 164.339 125.163 162.977 126.415C155.224 133.323 154.717 147.493 162.095 155.161C164.345 157.491 166.97 159.578 170.608 159.264C178.716 160.783 184.797 156.954 187.098 148.962C187.96 145.439 187.998 141.765 187.209 138.225Z" fill="#059E67"/>
<path d="M166.706 270.553C168.49 269.236 168.916 267.069 169.899 265.286C175.493 255.076 182.709 246.04 189.692 236.793C190.705 235.405 191.79 234.007 192.844 232.609C193.087 232.285 193.28 231.799 193.786 231.981C194.293 232.163 194.212 232.66 194.253 233.075C194.688 237.856 195.003 242.647 195.57 247.418C197.242 261.417 199.229 275.365 205.421 288.279C207.688 293.318 210.87 297.892 214.806 301.771C215.242 302.177 216.012 302.572 215.82 303.25C215.627 303.929 214.735 303.99 214.026 304.02C213.063 302.44 211.685 301.761 209.972 302.602C208.259 303.443 208.431 304.901 208.766 306.431C209.354 309.145 209.901 311.87 210.448 314.595C210.646 315.337 210.664 316.115 210.501 316.865C210.339 317.616 210 318.317 209.513 318.91C209.026 319.504 208.404 319.973 207.7 320.28C206.996 320.586 206.228 320.721 205.462 320.672C201.56 320.672 197.648 320.672 193.736 320.672C191.222 320.498 188.706 320.973 186.429 322.05C185.273 322.678 184.969 321.858 184.483 321.24C178.33 313.225 173.699 304.152 170.821 294.468C168.868 288.152 167.571 281.652 166.95 275.071C166.712 273.577 166.631 272.063 166.706 270.553Z" fill="#87B97A"/>
<path d="M36.0283 180.14C40.6801 177.608 45.6361 177.932 50.7035 178.347C57.2201 178.874 63.7571 179.228 70.2433 180.029C76.1418 180.758 80.216 184.08 82.5166 189.509C83.2594 191.696 84.5218 193.671 86.1955 195.263C87.5453 196.397 89.1525 197.184 90.8767 197.555C92.601 197.926 94.3898 197.869 96.0871 197.39C103.698 195.607 111.026 192.872 118.384 190.218C132.42 185.154 146.366 179.846 160.392 174.782C163.585 173.627 165.46 171.338 167.274 168.704C168.977 172.442 168.206 175.795 164.963 178.833C162.605 180.95 159.868 182.603 156.896 183.705C134.126 192.957 111.347 202.191 88.5569 211.409C83.4763 213.405 77.9481 213.983 72.5642 213.08C64.1625 211.875 55.7303 210.781 47.288 209.869C39.1194 208.978 33.981 203.022 34.7817 194.898C35.2783 189.986 35.1465 185.073 36.0283 180.14ZM67.2941 187.625C67.2941 185.691 66.1894 184.252 64.7807 184.354C63.078 184.475 62.3889 185.62 62.3179 187.19C62.2627 187.553 62.2863 187.924 62.3869 188.277C62.4876 188.63 62.663 188.958 62.9014 189.237C63.1398 189.517 63.4354 189.742 63.7684 189.897C64.1014 190.052 64.4639 190.134 64.8314 190.137C66.6962 190.137 67.0813 188.821 67.2941 187.625ZM48.4535 185.589C48.19 184.06 47.5921 182.824 45.9097 182.682C44.4908 182.561 43.376 183.979 43.4064 185.721C43.4368 187.463 44.582 188.689 46.0617 188.547C47.815 188.334 48.2002 186.997 48.4535 185.589Z" fill="#3F764B"/>
<path d="M253.896 342.491C254.454 342.537 254.98 342.773 255.386 343.159C263.098 348.659 272.564 346.482 277.105 338.166C279.659 333.496 281.017 328.33 283.094 323.468C286.662 315.091 292.692 309.956 301.975 309.075C300.962 315.152 299.847 321.28 298.844 327.398C297.769 333.992 296.817 340.566 295.722 347.201C294.628 353.835 297.172 359.255 301.803 363.803C304.844 366.77 305.512 370.113 304.621 374.114C303.222 380.364 301.986 386.654 300.688 392.924C300.07 395.882 298.661 398.07 295.357 398.546C294.81 397.229 294.061 396.006 293.138 394.919C295.682 394.585 296.969 392.944 297.719 390.655C299.424 384.925 300.675 379.069 301.459 373.142C301.803 371.015 300.03 369.941 298.063 371.004C296.138 372.12 294.121 373.069 292.033 373.841C288.162 375.147 284.371 374.631 280.581 373.516C280.946 366.75 277.591 362.374 271.723 359.548C264.7 356.145 258.72 351.516 254.838 344.557C254.487 343.886 254.172 343.196 253.896 342.491Z" fill="#3F764B"/>
<path d="M141.613 112.447C135.623 111.97 129.653 112.73 123.674 112.912C119.448 113.034 115.181 113.004 110.985 113.925C99.8977 116.346 92.0939 122.535 88.415 133.414C86.9494 137.729 84.0992 141.439 80.3072 143.969C67.9427 152.781 55.6898 161.776 43.3861 170.629C40.5991 172.654 38.8052 175.46 36.6465 178.003C38.0147 172.27 41.3592 167.853 45.8996 164.227C56.0749 156.063 66.284 147.96 76.5269 139.917C80.0873 137.194 82.7462 133.463 84.1584 129.21C88.4454 116.377 99.5025 108.395 113.002 108.091C129.522 107.645 146.031 106.784 162.551 106.612C174.483 106.514 186.036 110.789 195.028 118.628C204.02 126.467 209.826 137.327 211.35 149.155C211.85 152.609 211.996 156.104 211.786 159.588C210.347 154.214 208.542 148.945 206.384 143.817C202.776 135.825 198.165 128.623 190.564 123.822C183.643 119.405 175.409 117.512 167.254 118.463C163.575 118.848 159.977 119.608 156.328 120.165C153.906 120.53 152.011 121.998 149.801 122.768C150.178 121.356 150.918 120.068 151.948 119.03C152.977 117.992 154.26 117.242 155.67 116.853C157.798 116.215 159.946 115.698 162.105 115.212C162.762 115.089 163.344 114.711 163.724 114.16C164.104 113.61 164.251 112.932 164.132 112.274C164.133 111.941 164.068 111.612 163.941 111.304C163.813 110.997 163.625 110.718 163.388 110.484C163.151 110.25 162.87 110.066 162.561 109.942C162.252 109.818 161.921 109.757 161.588 109.762C161.031 109.762 160.473 109.762 159.916 109.762C159.227 109.439 158.462 109.316 157.707 109.408C152.176 109.12 146.657 110.162 141.613 112.447Z" fill="#87B97A"/>
<path d="M82.8105 265.094C88.567 265.529 94.2932 266.258 100.04 266.451C107.641 266.694 113.59 263.807 119.063 258.864C128.843 250.011 138.025 240.561 147.44 231.292C156.429 222.517 166.52 214.944 177.459 208.765C184.756 204.582 191.212 199.466 194.83 191.545C196.952 186.835 198.458 181.872 199.31 176.777C199.403 175.808 199.642 174.859 200.019 173.961C200.326 173.323 200.836 172.805 201.468 172.486C202.1 172.167 202.82 172.066 203.516 172.199C204.227 172.244 204.9 172.537 205.417 173.028C205.934 173.519 206.262 174.175 206.343 174.883C207.792 181.981 208.272 189.242 207.772 196.468C207.045 204.604 204.731 212.518 200.962 219.765C199.039 223.603 196.755 227.249 194.141 230.654C193.769 228.885 193.532 227.091 193.432 225.286C193.31 222.369 193.128 219.451 192.884 216.534C192.918 215.759 192.665 214.999 192.175 214.397C197.441 209.851 201.263 203.865 203.171 197.177C203.83 194.858 203.171 193.257 201.398 192.751C199.807 192.315 198.418 193.267 197.81 195.384C195.57 203.305 190.584 209.079 183.834 213.526C180.463 215.772 176.953 217.802 173.324 219.603C164.033 224.3 155.595 230.521 148.362 238.008C140.66 245.787 132.745 253.364 124.829 260.941C116.914 268.517 107.144 271.424 96.1681 269.875C93.5534 269.51 90.8981 269.297 88.3035 268.862C87.1562 268.709 86.0609 268.288 85.1065 267.634C84.1522 266.979 83.3656 266.109 82.8105 265.094Z" fill="#3F764B"/>
<path d="M449.427 201.462C443.64 203.984 437.731 206.233 432.045 208.988C409.11 220.13 388.223 234.149 370.061 252.128C362.146 259.958 355.741 269.024 348.778 277.664C336.529 293.235 322.874 307.649 307.985 320.723C307.256 321.361 306.485 321.969 305.735 322.587V322.638C305.431 319.285 306.749 316.165 307.114 312.913C307.096 312.008 307.327 311.114 307.783 310.331C308.716 310.036 309.567 309.526 310.266 308.842C321.931 300.06 331.65 289.312 341.076 278.292C351.038 266.653 360.626 254.691 371.875 244.217C377.91 238.531 384.319 233.255 391.06 228.426C408.137 216.332 426.998 207.955 446.903 201.776C447.716 201.508 448.573 201.401 449.427 201.462Z" fill="#059E67"/>
<path d="M452.274 197.39C444.744 198.384 437.293 199.911 429.978 201.958C418.692 205.353 407.714 209.697 397.161 214.944C383.408 221.609 370.365 229.56 357.028 236.965C340.518 246.132 323.39 253.83 304.783 257.77C304.235 257.882 303.678 257.932 303.131 258.013C302.3 257 301.489 255.987 300.638 254.974C299.786 253.962 298.894 253.07 297.861 251.936C321.819 248.158 342.758 237.299 363.818 226.765C378.868 219.239 393.847 211.571 409.739 205.888C421.89 201.403 434.58 198.542 447.481 197.38C448.93 197.258 450.399 197.289 451.869 197.238L452.274 197.39Z" fill="#87B97A"/>
<path d="M449.427 201.462C448.593 201.409 447.757 201.516 446.964 201.776C427.059 207.955 408.198 216.332 391.121 228.426C384.38 233.255 377.971 238.531 371.936 244.217C360.686 254.691 351.099 266.653 341.136 278.292C331.711 289.312 321.992 300.059 310.326 308.841C309.627 309.526 308.777 310.036 307.843 310.33C307.843 308.811 307.904 307.292 306.435 306.279C315.414 300.13 323.066 292.574 330.272 284.481C340.224 273.339 349.345 261.417 359.49 250.386C373.284 235.405 388.983 223.037 407.286 214.022C423.502 206.081 440.65 201.087 458.335 197.815C458.913 197.788 459.469 197.583 459.926 197.228C460.413 197.228 460.94 197.228 461.375 197.228C461.758 197.289 462.137 197.37 462.511 197.471C458.132 198.575 454.453 200.256 450.491 201.036C450.289 201.022 450.086 201.054 449.898 201.13C449.71 201.205 449.542 201.322 449.406 201.472L449.427 201.462Z" fill="#3F764B"/>
<path d="M279.709 256.342C279.861 258.986 280.125 261.619 280.145 264.253C280.145 269.956 276.213 274.807 271.024 275.577C264.943 276.469 260.149 273.45 258.284 267.595C257.391 264.304 256.281 261.076 254.96 257.932C254.96 255.906 253.44 254.346 253.298 252.361C261.629 250.74 269.949 249.039 278.523 249.717C278.619 251.969 279.018 254.197 279.709 256.342Z" fill="#3F764B"/>
<path d="M222.66 365.889C222.782 359.346 219.62 354.96 213.782 352.286C212.191 351.556 210.61 350.959 210.955 348.619C211.127 347.424 211.279 347.089 212.546 347.484C216.86 348.851 221.307 349.754 225.812 350.179C229.866 350.554 233.991 351.08 238.106 350.645C238.479 350.566 238.868 350.617 239.208 350.788C239.549 350.959 239.821 351.241 239.981 351.587C241.322 353.707 242.892 355.674 244.663 357.451C245.675 358.474 246.414 359.734 246.812 361.116C247.21 362.499 247.256 363.958 246.943 365.362C245.535 372.382 244.014 379.381 242.464 386.37C242.3 387.627 241.706 388.788 240.782 389.656C239.858 390.524 238.662 391.046 237.396 391.131L235.319 387.748C237.994 386.948 239.241 385.003 240.001 382.41C241.431 377.263 242.541 372.033 243.325 366.75C243.518 365.535 243.741 364.39 242.545 363.559C241.349 362.729 240.346 363.559 239.322 364.127C234.032 367.125 228.569 368.665 222.66 365.889Z" fill="#3F764B"/>
<path d="M280.54 373.476C284.331 374.59 288.121 375.107 291.993 373.8C294.08 373.029 296.098 372.08 298.023 370.964C299.989 369.9 301.763 370.964 301.418 373.101C300.638 379.055 299.388 384.939 297.678 390.696C296.928 392.985 295.651 394.626 293.097 394.96C291.293 393.349 289.53 391.668 286.814 392.063C284.868 389.642 283.388 389.571 281.229 391.871C280.287 392.883 279.415 393.957 278.503 395C277.098 393.37 275.158 392.293 273.03 391.962C271.318 389.693 269.767 389.622 267.811 391.557C266.544 392.802 265.784 394.474 264.284 395.507C263.826 394.726 263.218 394.043 262.494 393.499C261.77 392.955 260.946 392.56 260.068 392.336C260.966 391.217 262.105 390.313 263.399 389.692C264.694 389.072 266.112 388.75 267.548 388.751C275.068 388.508 278.341 384.031 279.709 377.376C279.983 376.089 280.267 374.803 280.54 373.476Z" fill="#059E67"/>
<path d="M222.661 365.889C228.569 368.665 234.032 367.125 239.332 364.137C240.346 363.549 241.288 362.688 242.555 363.57C243.822 364.451 243.569 365.545 243.335 366.76C242.548 372.044 241.434 377.274 240.001 382.42C239.241 385.013 237.974 386.958 235.319 387.758C233.444 385.904 231.346 384.517 228.6 384.476C226.907 382.45 225.387 382.329 223.633 384.142C222.488 385.327 221.404 386.553 220.289 387.758C219.751 386.887 219.008 386.161 218.125 385.644C217.242 385.126 216.245 384.833 215.222 384.79C213.195 382.258 211.725 382.207 209.546 384.628C208.533 385.803 207.468 386.998 206.425 388.184C205.32 386.745 204.114 385.459 202.178 385.195C203.597 382.957 205.898 382.238 208.259 381.63C208.391 381.63 208.533 381.569 208.664 381.539C218.566 379.766 220.968 377.214 222.336 367.095C222.42 366.687 222.529 366.284 222.661 365.889Z" fill="#059E67"/>
<path d="M142.808 340.779C142.674 340.275 142.402 339.819 142.022 339.461C141.643 339.103 141.171 338.858 140.66 338.753C140.66 338.267 140.66 337.74 140.66 337.305C140.66 336.16 140.528 334.995 139.17 334.681C137.812 334.367 137.052 335.39 136.596 336.525C136.14 337.659 135.674 339.118 135.228 340.414L133.525 340.597C133.267 339.963 132.816 339.426 132.236 339.062C131.655 338.699 130.975 338.527 130.292 338.571C130.292 338.085 130.201 337.558 130.201 337.122C130.201 336.008 130.028 334.985 128.752 334.681C127.475 334.377 126.674 335.208 126.238 336.312C125.701 337.669 125.225 339.047 124.748 340.364L122.326 340.738C122.414 335.254 123.687 329.854 126.056 324.906C129.132 322.443 133.03 321.24 136.961 321.544C141.349 321.695 145.748 321.544 150.136 321.544C152.981 321.623 155.754 320.637 157.909 318.778C159.328 317.563 160.636 316.216 161.963 314.929C163.674 315.698 165.15 316.908 166.24 318.434C167.345 319.832 168.987 321.149 167.973 323.185C166.96 325.22 164.882 324.866 163.149 324.937C159.612 325.089 156.055 324.937 152.507 325.028C151.354 324.997 150.206 325.205 149.136 325.639C148.067 326.073 147.098 326.723 146.292 327.548C145.486 328.374 144.859 329.358 144.452 330.437C144.044 331.516 143.864 332.668 143.923 333.82C144.016 336.04 144.287 338.248 144.734 340.424L142.808 340.779Z" fill="#059E67"/>
<path d="M144.805 340.394C144.358 338.218 144.087 336.009 143.994 333.79C143.935 332.638 144.115 331.486 144.523 330.406C144.93 329.327 145.557 328.344 146.363 327.518C147.169 326.692 148.138 326.042 149.207 325.608C150.277 325.175 151.425 324.967 152.578 324.998C156.126 324.927 159.673 325.058 163.22 324.906C164.953 324.836 167.061 325.109 168.044 323.154C169.027 321.199 167.416 319.801 166.311 318.403C165.221 316.877 163.745 315.668 162.034 314.899C161.578 313.957 160.514 313.774 159.825 313.126C161.102 311.1 162.723 309.399 163.777 307.261C164.831 305.124 165.804 303.21 166.818 301.093C167.456 301.407 167.466 302.106 167.679 302.653C169.75 308.125 172.368 313.375 175.493 318.322C175.843 318.74 176.058 319.254 176.11 319.796C176.163 320.339 176.05 320.884 175.787 321.361C175.554 321.777 175.412 322.253 175.209 322.698C172.878 327.763 169.129 330.518 163.382 330.275C160.595 330.163 157.808 330.356 155.021 330.376C150.967 330.376 149.001 331.946 148.129 335.897C147.805 337.396 147.592 338.935 147.318 340.414L144.805 340.394Z" fill="#3F764B"/>
<path d="M113.316 231.758C114.705 229.034 116.752 226.866 118.627 224.577C124.735 217.23 131.284 210.262 138.238 203.711C140.407 201.685 142.758 199.77 144.977 197.755C145.991 196.883 146.558 196.904 146.751 198.261C147.136 200.885 148.454 203.488 146.873 206.182C146.45 206.984 145.86 207.686 145.141 208.239C144.422 208.791 143.591 209.181 142.707 209.383C140.755 209.906 138.771 210.302 136.768 210.568C131.508 211.024 128.285 214.782 129.572 221.183C130.006 222.944 130.234 224.749 130.251 226.562C130.278 227.068 130.197 227.573 130.016 228.046C129.834 228.519 129.555 228.948 129.197 229.306C128.838 229.664 128.409 229.943 127.936 230.125C127.463 230.306 126.957 230.387 126.451 230.36C124.498 230.45 122.54 230.362 120.603 230.097C117.958 229.641 115.617 230.452 113.316 231.758Z" fill="#750D00"/>
<path d="M246.65 320.804C245.565 326.882 245.16 332.959 246.65 339.037C247.055 340.718 247.663 342.359 248.17 344.162C238.923 345.598 229.498 345.426 220.309 343.656C221.598 343.152 222.982 342.934 224.363 343.017C226.438 342.929 228.475 342.426 230.353 341.538C232.23 340.651 233.911 339.396 235.296 337.849C236.681 336.302 237.741 334.493 238.416 332.529C239.09 330.566 239.363 328.487 239.221 326.416C239.119 324.268 239.15 322.111 239.119 319.963L246.65 320.804Z" fill="#059E67"/>
<path d="M246.224 258.803C246.224 259.988 246.224 261.174 246.224 262.359C246.318 264.223 245.685 266.05 244.458 267.458C243.231 268.865 241.507 269.742 239.646 269.905C237.864 270.132 236.06 269.697 234.577 268.684C233.094 267.67 232.034 266.147 231.599 264.405C230.951 262.136 230.393 259.837 229.785 257.547C229.674 255.521 228.569 253.81 228.559 251.814C233.88 253.546 239.383 253.384 244.876 253.394C245.565 255.147 245.271 257.122 246.224 258.803Z" fill="#3F764B"/>
<path d="M202.695 347.626C202.452 345.833 202.249 344.041 201.965 342.248C201.747 341.045 201.798 339.809 202.113 338.627C202.429 337.446 203.002 336.35 203.791 335.416C204.58 334.482 205.566 333.733 206.679 333.225C207.791 332.716 209.002 332.459 210.225 332.473C214.613 332.382 219.002 332.098 223.4 332.088C227.799 332.078 230.181 329.789 231.61 325.95C232.055 324.755 231.964 323.296 233.16 322.425C234.528 328.502 233.069 333.111 228.964 335.816C227.178 336.924 225.117 337.51 223.015 337.507C219.326 337.639 215.637 337.73 211.948 337.852C210.643 337.804 209.363 338.22 208.337 339.027C207.311 339.834 206.604 340.979 206.343 342.258C205.837 344.122 205.512 346.036 205.107 347.93L202.695 347.626Z" fill="#3F764B"/>
<path d="M134.366 199.355L120.046 214.133C119.371 214.022 118.681 214.053 118.019 214.225C113.87 215.145 109.823 216.475 105.938 218.195C106.333 215.524 107.012 212.902 107.965 210.376C108.066 210.08 108.237 209.812 108.463 209.596C108.688 209.379 108.962 209.219 109.262 209.13L133.586 199.325C133.788 199.269 133.995 199.235 134.204 199.223L134.366 199.355Z" fill="#E16B71"/>
<path d="M274.794 296.119L277.469 295.724C279.659 295.41 281.088 296.17 281.625 297.932C282.162 299.695 281.27 301.083 279.172 301.903C274.384 303.642 269.895 306.113 265.865 309.226C260.501 313.37 256.074 318.6 252.872 324.572C252.641 325.234 252.222 325.815 251.666 326.243C252.477 316.995 256.916 309.834 264.294 304.395C266.67 302.562 269.335 301.138 272.179 300.181C272.623 300.096 273.045 299.922 273.42 299.67C273.794 299.417 274.114 299.091 274.358 298.711C274.603 298.331 274.768 297.905 274.842 297.46C274.917 297.014 274.901 296.558 274.794 296.119Z" fill="#87B97A"/>
<path d="M216.053 313.643C217.909 316.366 218.924 319.575 218.971 322.87C218.971 326.203 217.188 328.188 213.955 328.756C210.722 329.323 207.55 329.059 204.347 329.1C200.516 329.151 196.675 329.181 192.844 329.1C190.329 328.944 187.833 329.628 185.75 331.045C185.27 331.313 184.759 331.524 184.229 331.673C185.952 327.864 189.155 326.365 193.087 326.254C197.141 326.142 201.296 326.254 205.401 326.254C212.049 326.254 216.417 321.625 216.093 314.929C216.042 314.473 216.053 314.058 216.053 313.643Z" fill="#87B97A"/>
<path d="M92.8135 230.229C92.1378 234.031 91.4351 237.829 90.7054 241.624C88.8222 242.293 87.0149 243.159 85.3137 244.207C84.4724 244.702 83.8047 245.444 83.4019 246.332C82.9991 247.221 82.881 248.212 83.0638 249.17C83.195 250.684 83.5644 252.168 84.1584 253.567C83.598 254.263 82.8538 254.79 82.0098 255.086C81.1787 251.905 80.2869 248.796 79.5876 245.635C79.2633 244.126 80.3578 243.194 81.6145 242.597C83.4793 241.675 85.3847 240.844 87.2596 239.933C90.7865 238.201 91.9013 235.658 90.8068 231.9C90.1987 229.773 89.692 227.595 88.9217 225.529C88.1515 223.463 88.9217 222.156 90.6852 221.254C92.7121 220.241 94.7999 219.229 97.06 218.155C96.7715 219.658 96.2043 221.094 95.3877 222.389C94.6564 222.68 93.9981 223.129 93.459 223.702C92.92 224.275 92.5134 224.96 92.2679 225.708C92.0224 226.455 91.9441 227.248 92.0383 228.029C92.1326 228.81 92.3972 229.561 92.8135 230.229Z" fill="#87B97A"/>
<path d="M98.489 231.667C99.4416 234.463 98.9552 236.833 99.5734 239.061C99.7356 239.659 99.8268 240.277 99.9383 240.895C99.9978 241.525 100.263 242.119 100.694 242.584C101.124 243.049 101.696 243.359 102.32 243.468C103.779 243.772 104.681 242.941 105.452 241.867C107.397 239.163 109.364 236.458 111.32 233.764C111.451 233.508 111.637 233.285 111.865 233.11C112.093 232.935 112.356 232.812 112.637 232.751C110.448 237.329 111.309 242.151 110.509 246.75C110.103 249.11 108.847 249.849 106.678 248.775C105.492 248.178 104.387 247.448 103.262 246.75C101.59 245.737 99.8876 244.784 97.8099 245.007C96.6242 245.129 96.1478 244.521 96.2593 243.387C96.6462 239.421 97.3925 235.498 98.489 231.667Z" fill="#750D00"/>
<path d="M300.668 265.499C298.702 268.001 296.269 268.872 293.574 268.061C290.878 267.251 289.52 265.408 289.266 262.308C289.114 260.718 289.013 259.117 288.891 257.527C289.195 255.856 288.405 254.255 288.557 252.584C294.354 255.228 298.023 259.887 300.668 265.499Z" fill="#3F764B"/>
<path d="M105.898 218.195C109.783 216.475 113.83 215.145 117.978 214.225C118.64 214.053 119.331 214.022 120.005 214.134C114.796 220.211 109.678 226.289 104.661 233.126C104.241 228.115 104.659 223.069 105.898 218.195Z" fill="#F39AA1"/>
<path d="M159.825 313.126C160.514 313.774 161.578 313.957 162.034 314.899C160.676 316.185 159.369 317.532 157.98 318.748C155.821 320.666 153.014 321.694 150.126 321.625C145.727 321.625 141.329 321.736 136.951 321.625C133.02 321.321 129.122 322.524 126.046 324.987C126.657 323.282 127.776 321.804 129.253 320.754C130.729 319.704 132.493 319.131 134.305 319.113C138.197 319.113 142.089 319.021 145.981 319.113C148.382 319.243 150.782 318.844 153.011 317.945C155.241 317.045 157.245 315.666 158.882 313.906C159.176 313.623 159.491 313.362 159.825 313.126Z" fill="#87B97A"/>
<path d="M288.537 252.584C288.385 254.255 289.175 255.856 288.871 257.527C285.88 256.817 282.823 256.42 279.75 256.342C279.048 254.198 278.639 251.97 278.534 249.717C282.039 249.924 285.455 250.903 288.537 252.584Z" fill="#87B97A"/>
<path d="M228.61 384.476C231.356 384.476 233.454 385.904 235.329 387.758L237.407 391.141C234.853 391.972 232.147 391.141 229.552 391.871C227.89 392.326 226.147 392.499 224.434 392.802C225.032 390.888 226.461 389.521 227.718 388.082C228.204 387.635 228.548 387.055 228.707 386.414C228.866 385.772 228.832 385.098 228.61 384.476Z" fill="#394634"/>
<path d="M84.1584 253.566C83.5644 252.168 83.195 250.684 83.0638 249.17C82.881 248.212 82.9991 247.221 83.4019 246.332C83.8047 245.444 84.4724 244.702 85.3137 244.207C87.0149 243.159 88.8222 242.293 90.7054 241.624C90.5483 242.287 90.4802 242.969 90.5027 243.65C91.3541 248.157 88.8508 250.69 85.3441 252.685C84.9387 252.938 84.5536 253.283 84.1584 253.566Z" fill="#CCCCCC"/>
<path d="M286.814 392.023C289.53 391.627 291.293 393.309 293.097 394.919C294.021 396.006 294.77 397.229 295.317 398.546C291.385 398.758 287.432 398.839 283.621 400.045C283.236 400.166 282.75 400.399 282.527 399.923C282.498 399.759 282.503 399.59 282.543 399.428C282.583 399.265 282.657 399.113 282.76 398.981C283.557 397.848 284.424 396.766 285.354 395.74C285.872 395.278 286.274 394.701 286.527 394.055C286.781 393.409 286.879 392.713 286.814 392.023Z" fill="#394634"/>
<path d="M246.224 258.803C245.271 257.122 245.565 255.147 244.917 253.394L253.268 252.381C253.409 254.407 254.93 255.927 254.93 257.952C252.011 258.023 249.101 258.308 246.224 258.803Z" fill="#87B97A"/>
<path d="M260.068 392.337C260.946 392.56 261.77 392.955 262.494 393.499C263.218 394.043 263.826 394.726 264.284 395.507C263.595 397.533 262.764 399.285 260.068 399.204C258.76 399.328 257.475 399.628 256.247 400.095C255.781 400.207 255.234 400.491 254.92 400.025C254.757 399.792 254.92 399.224 255.132 398.88C256.399 396.408 257.727 393.988 260.068 392.337Z" fill="#394634"/>
<path d="M202.188 385.195C204.124 385.459 205.33 386.745 206.435 388.184C206.203 389.305 205.577 390.307 204.669 391.005C203.762 391.704 202.633 392.055 201.489 391.992C200.535 392.14 199.593 392.36 198.671 392.651C198.114 392.752 197.455 393.4 196.979 392.742C196.634 392.266 197.09 391.668 197.364 391.212C198.692 388.984 199.655 386.451 202.188 385.195Z" fill="#394634"/>
<path d="M273.03 391.962C275.158 392.293 277.098 393.37 278.503 395.001L276.608 398.201C276.395 398.566 276.122 398.951 275.686 398.961C273.334 399.022 271.135 399.923 268.652 400.288C269.293 398.551 270.335 396.989 271.693 395.73C272.203 395.256 272.59 394.666 272.823 394.01C273.056 393.354 273.127 392.651 273.03 391.962Z" fill="#394634"/>
<path d="M215.232 384.79C216.255 384.833 217.252 385.126 218.135 385.644C219.019 386.161 219.762 386.887 220.299 387.758C219.488 390.26 218.14 391.972 215.171 392.022C213.667 392.205 212.186 392.544 210.752 393.035C211.182 391.538 212.013 390.186 213.154 389.126C214.239 387.88 215.485 386.695 215.232 384.79Z" fill="#394634"/>
<path d="M246.65 320.804L239.089 319.943C238.42 318.302 238.694 316.59 238.653 314.879L247.916 316.56L246.65 320.804Z" fill="#87B97A"/>
<path d="M144.805 340.394L147.329 340.465C147.191 344.291 147.398 348.122 147.947 351.911C143.994 349.206 143.143 345.114 142.808 340.769L144.805 340.394Z" fill="#394634"/>
<path d="M118.039 246.709L116.012 248.877C116.357 244.541 116.62 240.773 117.026 237.106C117.147 235.891 118.14 235.699 119.215 235.719C122.164 235.719 125.123 235.719 128.336 235.719C128.105 236.462 127.602 237.091 126.927 237.481C125.407 237.481 123.887 237.39 122.367 237.481C121.388 237.459 120.438 237.806 119.705 238.454C118.972 239.102 118.511 240.003 118.414 240.976C118.054 242.864 117.928 244.79 118.039 246.709Z" fill="#87B97A"/>
<path d="M118.039 246.709C117.936 244.779 118.072 242.843 118.444 240.946C118.541 239.972 119.002 239.072 119.735 238.424C120.468 237.776 121.419 237.428 122.397 237.451C123.917 237.4 125.437 237.451 126.958 237.451C124.12 240.692 121.147 243.778 118.039 246.709Z" fill="#CCCCCC"/>
<path d="M105.847 256.99L104.631 257.091C104.114 255.4 102.462 255.066 101.195 254.296C98.1546 252.493 95.1141 253.435 93.2797 256.575C92.2284 256.653 91.1722 256.512 90.1785 256.16C92.7426 254.255 95.0736 252.503 97.4249 250.771C98.1951 250.214 98.8843 250.69 99.5329 251.075C101.033 251.966 102.523 252.857 103.992 253.769C105.58 254.661 107.381 255.103 109.202 255.045C108.449 255.86 107.478 256.44 106.404 256.717L105.847 256.99Z" fill="#87B97A"/>
<path d="M228.599 251.814C228.599 253.84 229.714 255.572 229.826 257.547C224.252 255.369 221.191 251.105 219.802 245.453C222.142 248.29 225.171 250.48 228.599 251.814Z" fill="#87B97A"/>
<path d="M202.695 347.626L205.097 347.93C205.078 351.188 205.339 354.441 205.877 357.654C205.958 358.12 206.161 358.738 205.685 358.991C205.046 359.325 204.671 358.647 204.357 358.262C201.941 355.431 200.71 351.777 200.921 348.062L202.695 347.626Z" fill="#394634"/>
<path d="M122.275 340.779L124.698 340.404L127.657 340.9C126.907 344.142 126.096 347.373 126.431 351.364C125.067 349.965 123.998 348.308 123.284 346.491C122.571 344.673 122.228 342.731 122.275 340.779Z" fill="#394634"/>
<path d="M137.305 225.823C137.153 226.045 137.011 226.278 136.839 226.491C136.667 226.704 136.484 226.876 136.201 227.18C135.724 224.283 135.288 221.528 134.832 218.763C134.559 217.132 135.501 216.473 136.859 216.2C139.829 215.612 142.808 215.076 145.869 214.498C145.479 215.471 144.831 216.318 143.994 216.949C143.437 216.949 142.879 216.949 142.332 216.949C138.075 217.253 136.322 219.542 137.082 223.766C137.214 224.435 137.234 225.134 137.305 225.823Z" fill="#87B97A"/>
<path d="M180.429 348.011C181.27 347.9 182.192 348.224 182.932 347.545C183.865 347.876 184.852 348.024 185.841 347.981C184.594 351.182 184.392 354.575 184.067 358.525C182.775 357.113 181.786 355.452 181.161 353.644C180.535 351.836 180.286 349.919 180.429 348.011Z" fill="#394634"/>
<path d="M154.869 200.196C154.572 201.208 154.095 202.158 153.46 203.002C152.822 199.791 152.214 196.792 151.626 193.794C151.527 193.308 151.625 192.802 151.899 192.389C152.172 191.975 152.599 191.686 153.085 191.586C155.68 190.573 158.294 189.722 161.122 188.719C160.952 189.719 160.49 190.645 159.794 191.383C158.315 191.262 157.169 192.143 155.963 192.751C155.331 193.108 154.788 193.604 154.376 194.203C153.965 194.802 153.697 195.487 153.591 196.205C153.485 196.924 153.546 197.657 153.767 198.349C153.989 199.04 154.365 199.672 154.869 200.196Z" fill="#87B97A"/>
<path d="M133.474 340.586L135.177 340.404L137.326 340.546C136.312 344.598 137.042 348.588 137.326 352.6C134.69 350.574 133.859 347.667 133.555 344.557C133.403 343.24 133.484 341.903 133.474 340.586Z" fill="#394634"/>
<path d="M191.354 347.94C191.7 348.037 192.064 348.051 192.416 347.98C192.768 347.91 193.099 347.757 193.381 347.535L195.094 348.011C194.447 351.875 194.495 355.823 195.236 359.67C191.689 356.51 191.151 352.357 191.354 347.94Z" fill="#394634"/>
<path d="M93.2797 256.595C95.0735 253.455 98.195 252.543 101.195 254.316C102.462 255.076 104.114 255.42 104.631 257.112C101.59 258.256 98.6916 257.112 95.7221 256.98C94.9016 256.896 94.0862 256.768 93.2797 256.595Z" fill="#CCCCCC"/>
<path d="M137.305 225.823C137.234 225.134 137.214 224.435 137.092 223.797C136.332 219.573 138.106 217.284 142.342 216.98C142.89 216.98 143.447 216.98 144.004 216.98C142.002 220.095 139.762 223.051 137.305 225.823Z" fill="#CCCCCC"/>
<path d="M154.869 200.196C154.365 199.672 153.989 199.04 153.767 198.349C153.546 197.657 153.485 196.924 153.591 196.205C153.697 195.487 153.965 194.802 154.377 194.203C154.788 193.604 155.331 193.108 155.963 192.751C157.169 192.143 158.315 191.262 159.794 191.383C158.429 194.467 156.78 197.417 154.869 200.196Z" fill="#CCCCCC"/>
<path d="M127.657 340.9L124.698 340.404C125.194 339.037 125.65 337.659 126.187 336.352C126.623 335.248 127.343 334.398 128.701 334.722C130.059 335.046 130.16 336.049 130.15 337.163C130.15 337.639 130.211 338.176 130.241 338.611C129.668 338.779 129.14 339.071 128.693 339.467C128.246 339.863 127.892 340.352 127.657 340.9Z" fill="#3F764B"/>
<path d="M185.841 347.981C184.852 348.024 183.865 347.876 182.932 347.545C183.048 346.087 183.484 344.673 184.209 343.402C184.685 342.389 185.314 341.579 186.601 341.923C187.888 342.268 188.03 343.109 187.989 344.182C187.989 344.739 187.989 345.296 187.989 345.843C187.488 346.005 187.032 346.283 186.659 346.655C186.286 347.026 186.005 347.481 185.841 347.981Z" fill="#3F764B"/>
<path d="M137.326 340.546L135.177 340.404C135.623 339.108 136.028 337.791 136.545 336.514C137.062 335.238 137.65 334.327 139.119 334.671C140.589 335.015 140.579 336.15 140.609 337.294C140.609 337.781 140.609 338.257 140.609 338.743C139.944 338.676 139.273 338.812 138.687 339.134C138.101 339.456 137.626 339.948 137.326 340.546Z" fill="#3F764B"/>
<path d="M195.114 348.011L193.401 347.535C193.526 346.002 193.994 344.518 194.77 343.19C194.907 342.73 195.214 342.339 195.628 342.097C196.043 341.854 196.534 341.778 197.002 341.884C197.47 341.989 197.881 342.268 198.152 342.665C198.422 343.062 198.532 343.546 198.459 344.02C198.459 344.648 198.459 345.276 198.459 345.904C197.765 345.93 197.09 346.138 196.503 346.508C195.916 346.878 195.437 347.397 195.114 348.011Z" fill="#3F764B"/>
<path d="M92.8135 230.229C92.3935 229.56 92.1259 228.808 92.0296 228.024C91.9334 227.241 92.0108 226.446 92.2565 225.695C92.5022 224.945 92.9101 224.258 93.4513 223.683C93.9924 223.108 94.6535 222.66 95.3878 222.369L92.8135 230.229Z" fill="#CCCCCC"/>
<path d="M179.324 327.734C179.322 327.297 179.423 326.866 179.618 326.475C179.814 326.084 180.098 325.744 180.448 325.483C180.448 325.483 180.774 325.607 180.797 325.697C180.988 326.811 180.043 327.217 179.324 327.734Z" fill="black"/>
<path d="M452.274 197.39L451.889 197.218C452.296 197.018 452.742 196.91 453.195 196.899C453.648 196.889 454.098 196.977 454.514 197.157L452.274 197.39Z" fill="#3F764B"/>
<path d="M184.26 331.632L183.895 332.453L184.26 331.632Z" fill="#87B97A"/>
<path d="M449.376 201.482C449.512 201.332 449.68 201.215 449.868 201.14C450.056 201.064 450.258 201.032 450.46 201.047C450.227 201.513 449.791 201.482 449.376 201.482Z" fill="#059E67"/>
<path d="M305.777 322.587H305.472C305.655 322.354 305.726 322.506 305.787 322.679C305.797 322.638 305.777 322.587 305.777 322.587Z" fill="#059E67"/>
<path d="M134.214 199.254C134.346 199.254 134.6 199.102 134.6 199.112C134.722 199.356 134.519 199.345 134.367 199.386L134.214 199.254Z" fill="#059E67"/>
<path d="M137.285 352.6L137.396 352.67L137.305 352.59L137.285 352.6Z" fill="#394634"/>
<path d="M105.847 256.99L106.404 256.717L105.847 256.99Z" fill="#CCCCCC"/>
<path d="M224.434 392.802L224.323 392.904L224.424 392.782L224.434 392.802Z" fill="#394634"/>
<path d="M187.209 138.225C188.012 141.762 187.988 145.436 187.138 148.962C184.878 156.954 178.777 160.783 170.649 159.264C170.558 159.162 170.476 159.021 170.365 158.97C161.244 155.101 158.578 141.953 164.456 133.647C169.828 126.101 179.608 126.172 184.787 133.839C185.709 135.247 186.408 136.767 187.209 138.225ZM169.696 135.612C167.72 135.612 166.504 136.949 166.514 139.096C166.475 139.545 166.528 139.996 166.669 140.423C166.811 140.85 167.038 141.244 167.337 141.58C167.635 141.917 168 142.189 168.407 142.38C168.814 142.571 169.256 142.677 169.706 142.692C170.612 142.64 171.461 142.233 172.07 141.561C172.679 140.888 172.998 140.003 172.96 139.096C172.995 138.649 172.936 138.199 172.788 137.775C172.639 137.351 172.404 136.963 172.097 136.635C171.79 136.307 171.418 136.047 171.004 135.871C170.591 135.694 170.145 135.606 169.696 135.612Z" fill="#090805"/>
<path d="M187.209 138.225C186.408 136.767 185.709 135.247 184.787 133.88C179.608 126.212 169.828 126.141 164.456 133.687C158.578 141.953 161.193 155.101 170.365 159.01C170.476 159.061 170.558 159.203 170.649 159.304C167.01 159.618 164.385 157.532 162.135 155.202C154.757 147.534 155.264 133.363 163.017 126.455C164.381 125.207 165.981 124.244 167.723 123.624C169.466 123.005 171.315 122.74 173.161 122.847C175.007 122.954 176.813 123.429 178.472 124.246C180.132 125.062 181.61 126.202 182.821 127.6C184.965 130.096 186.48 133.069 187.239 136.27C187.391 136.898 187.736 137.567 187.209 138.225Z" fill="#3F764B"/>
<path d="M159.936 109.701C160.494 109.701 161.051 109.701 161.609 109.701C161.942 109.696 162.272 109.757 162.581 109.881C162.89 110.005 163.172 110.189 163.409 110.423C163.645 110.657 163.833 110.936 163.961 111.243C164.089 111.551 164.154 111.881 164.152 112.213C164.271 112.871 164.124 113.549 163.744 114.1C163.365 114.65 162.783 115.028 162.125 115.151C159.967 115.637 157.818 116.164 155.69 116.792C154.274 117.179 152.985 117.932 151.952 118.973C150.919 120.015 150.177 121.31 149.801 122.728H149.872C149.724 122.813 149.606 122.943 149.535 123.1C149.464 123.256 149.444 123.43 149.477 123.599C148.93 124.105 148.94 124.855 148.697 125.493C148.008 127.265 146.67 128.096 145.2 127.59C143.427 127.002 142.95 125.675 143.244 123.953C143.335 123.416 143.457 122.88 143.558 122.343C143.964 121.553 144.41 120.773 144.754 119.952C145.51 117.9 146.744 116.057 148.355 114.577C149.967 113.097 151.908 112.023 154.018 111.444L159.936 109.701Z" fill="#090805"/>
<path d="M159.936 109.702L153.987 111.423C151.877 112.003 149.936 113.077 148.325 114.557C146.714 116.037 145.479 117.88 144.724 119.932C144.379 120.752 143.933 121.532 143.528 122.322C140.71 120.124 139.92 116.083 141.602 112.447C146.651 110.137 152.181 109.074 157.727 109.347C158.482 109.256 159.248 109.379 159.936 109.702Z" fill="#3F764B"/>
<path d="M149.457 123.578C149.423 123.41 149.443 123.236 149.514 123.079C149.585 122.923 149.703 122.793 149.852 122.707L149.457 123.578Z" fill="#87B97A"/>
<path d="M67.2941 187.625C67.0813 188.821 66.6962 190.137 64.8314 190.137C64.4639 190.134 64.1014 190.052 63.7684 189.897C63.4355 189.742 63.1398 189.517 62.9014 189.237C62.6631 188.958 62.4876 188.63 62.3869 188.277C62.2863 187.924 62.2627 187.553 62.318 187.19C62.3889 185.62 63.0781 184.475 64.7807 184.354C66.1894 184.252 67.3448 185.691 67.2941 187.625Z" fill="#090805"/>
<path d="M48.4535 185.59C48.2204 186.997 47.8353 188.335 46.0617 188.507C44.5617 188.649 43.3861 187.403 43.3861 185.681C43.3861 183.959 44.4705 182.561 45.8894 182.642C47.5718 182.824 48.1697 184.06 48.4535 185.59Z" fill="#090805"/>
<path d="M169.696 135.612C170.145 135.606 170.591 135.694 171.004 135.871C171.418 136.047 171.79 136.307 172.097 136.635C172.404 136.963 172.639 137.351 172.788 137.775C172.936 138.199 172.995 138.649 172.959 139.096C172.998 140.003 172.679 140.888 172.07 141.561C171.461 142.233 170.612 142.64 169.706 142.692C169.256 142.677 168.814 142.571 168.407 142.38C167.999 142.189 167.635 141.917 167.337 141.58C167.038 141.244 166.811 140.85 166.669 140.423C166.528 139.996 166.475 139.545 166.514 139.096C166.504 136.949 167.72 135.612 169.696 135.612Z" fill="white"/>
</g>
<defs>
<filter id="filter0_d" x="24.1833" y="98" width="459.633" height="326.158" filterUnits="userSpaceOnUse" color-interpolation-filters="sRGB">
<feFlood flood-opacity="0" result="BackgroundImageFix"/>
<feColorMatrix in="SourceAlpha" type="matrix" values="0 0 0 0 0 0 0 0 0 0 0 0 0 0 0 0 0 0 127 0"/>
<feOffset dx="4" dy="6"/>
<feGaussianBlur stdDeviation="4.5"/>
<feColorMatrix type="matrix" values="0 0 0 0 0 0 0 0 0 0 0 0 0 0 0 0 0 0 0.25 0"/>
<feBlend mode="normal" in2="BackgroundImageFix" result="effect1_dropShadow"/>
<feBlend mode="normal" in="SourceGraphic" in2="effect1_dropShadow" result="shape"/>
</filter>
</defs>
</svg>
