<svg width="3000" height="500" viewBox="0 0 3000 500" fill="none" xmlns="http://www.w3.org/2000/svg">
<rect width="3000" height="500" fill="#DDECF7"/>
<g filter="url(#filter0_d_9_2)">
<path d="M1495.31 363.146C1496.32 364.296 1497.09 365.273 1497.95 366.147C1500.05 368.108 1501.59 370.581 1502.44 373.322C1503.28 376.063 1503.39 378.977 1502.76 381.775C1501.15 389.893 1499.42 397.996 1497.59 406.084C1496.98 408.9 1495.44 411.428 1493.21 413.257C1490.98 415.086 1488.2 416.108 1485.32 416.158C1478.61 416.307 1472.32 417.434 1466.6 421.217C1466.15 421.554 1465.61 421.753 1465.05 421.791C1464.48 421.83 1463.92 421.706 1463.43 421.435C1462.93 421.164 1462.53 420.756 1462.26 420.261C1461.99 419.766 1461.87 419.204 1461.91 418.642C1461.99 416.572 1461.07 416.882 1459.84 417.25C1457.1 418.032 1454.48 419.193 1452.06 420.7C1448.86 422.689 1446.7 421.746 1446.31 418.055C1446.17 416.618 1445.39 417.02 1444.72 417.181C1441.71 417.911 1438.86 419.164 1436.3 420.884C1435.74 421.345 1435.07 421.626 1434.35 421.689C1433.63 421.753 1432.92 421.597 1432.29 421.24C1430.82 420.401 1430.68 418.941 1430.97 417.492C1432.43 409.776 1435.57 402.934 1441.42 397.483C1445.02 394.202 1449.64 392.272 1454.51 392.021C1457.85 391.745 1460 390.388 1460.79 387.053C1461.23 385.213 1461.94 383.419 1462.25 381.568C1463.09 377.164 1461.17 373.771 1456.75 371.816C1456.58 374.047 1457.58 375.945 1458.18 377.899C1458.65 379.417 1459.01 380.809 1457.77 382.085C1456.52 383.362 1455.04 383.074 1453.55 382.683C1451.17 382.018 1448.9 380.986 1446.82 379.624C1446.85 380.282 1446.68 380.933 1446.33 381.492C1445.99 382.052 1445.48 382.495 1444.88 382.764C1443.66 383.137 1442.36 383.137 1441.14 382.764C1438.17 382.117 1435.41 380.755 1433.09 378.796C1432.41 382.557 1430.55 383.396 1427.18 381.809C1417.82 377.21 1412.99 367.447 1414.53 356.511C1415.33 350.316 1417.08 344.279 1419.69 338.606C1419.82 338.342 1420.08 338.077 1419.69 337.629C1418.9 337.951 1418.54 338.779 1418.13 339.411C1416.5 341.717 1414.34 343.598 1411.84 344.893C1409.33 346.188 1406.55 346.86 1403.72 346.851C1400.01 346.851 1396.29 347.139 1392.57 347.162C1391.17 347.162 1390.69 347.668 1390.43 349.013C1389.33 355.471 1389.87 362.102 1392 368.298C1392.22 368.976 1392.48 369.631 1392.69 370.31C1393.53 373.127 1391.54 375.289 1388.73 374.622C1387.43 374.31 1386.15 373.887 1384.92 373.357C1383.68 372.851 1382.52 372.207 1381.32 371.586C1379.89 374.76 1379.09 375.117 1375.64 374.45C1372.69 373.823 1369.94 372.52 1367.58 370.643C1366.43 374.461 1364.8 375.14 1361.29 373.334C1352.28 368.735 1348.51 361.064 1348.63 351.21C1348.83 344.391 1350.44 337.688 1353.36 331.523C1356.38 324.807 1361.8 321.461 1369.11 321.277C1373.64 321.173 1378.16 321.15 1382.67 321.277C1384.5 321.334 1386.31 320.975 1387.98 320.225C1389.65 319.476 1391.13 318.357 1392.3 316.953C1397.64 311.019 1400.49 303.855 1401.92 296.139C1402.5 292.919 1400.93 289.792 1400.46 286.595C1399.22 278.304 1398.58 269.944 1397.73 261.607C1396.82 252.741 1396.06 243.852 1395.2 234.583C1392.39 237.263 1389.77 239.712 1387.14 242.219C1378.79 250.268 1370.52 258.525 1362.07 266.528C1357.41 271.137 1351.74 274.605 1345.51 276.664C1339.29 278.722 1332.67 279.315 1326.17 278.396C1322.48 277.959 1318.77 277.66 1315.12 276.993C1309.31 275.912 1305.35 272.393 1303 267.046C1302.39 265.666 1301.85 264.275 1301.3 262.883C1300.88 262.023 1300.71 261.062 1300.81 260.109C1300.91 259.157 1301.28 258.253 1301.87 257.502C1302.26 257.023 1302.51 256.452 1302.6 255.845C1302.69 255.239 1302.61 254.62 1302.38 254.052C1301.62 250.671 1300.2 247.451 1300.15 243.909C1300.09 242.198 1300.53 240.506 1301.41 239.037C1302.29 237.569 1303.58 236.386 1305.12 235.63C1307.19 234.471 1309.33 233.453 1311.54 232.582C1313.19 231.939 1313.42 231.042 1312.86 229.501C1312.16 227.569 1311.71 225.533 1311.06 223.613C1310.34 221.983 1310.1 220.183 1310.38 218.424C1310.66 216.665 1311.43 215.022 1312.61 213.689C1309.73 214.061 1306.84 214.246 1303.93 214.241C1296.19 213.77 1288.54 212.424 1280.84 211.539C1275.66 210.941 1270.49 210.389 1265.34 209.377C1260.92 208.501 1256.92 206.145 1254.01 202.697C1251.1 199.249 1249.45 194.913 1249.33 190.403C1249.25 182.503 1249.47 174.568 1251.27 166.818C1253.13 159.047 1257.6 152.148 1263.93 147.269C1275.5 137.931 1287.15 128.663 1298.86 119.464C1302.06 116.993 1304.46 113.633 1305.76 109.804C1311.56 93.1991 1325.27 82.8497 1342.79 81.9412C1352.11 81.4583 1361.45 81.2858 1370.78 80.9983C1381.07 80.6878 1391.35 80.1588 1401.64 80.1588C1431.18 80.0438 1457.06 102.008 1461.99 131.181C1463.45 139.806 1463.04 148.534 1463.36 157.216C1463.92 172.947 1464.51 188.667 1465.57 204.363C1466.2 213.563 1466.72 222.831 1468.01 231.961C1469.25 240.942 1474.43 245.508 1483.45 246.474C1492.47 247.44 1500.93 245.703 1509.6 244.312C1518.6 242.874 1527.58 241.379 1536.72 243.081C1537.82 243.173 1538.91 243.413 1539.95 243.794C1545.89 246.876 1551.94 245.462 1557.96 244.312C1576.29 240.862 1593.19 233.399 1609.86 225.349C1628.91 216.15 1647.52 205.95 1667.1 197.831C1681.97 191.668 1697.19 186.758 1713.12 184.354C1723.77 182.666 1734.59 182.28 1745.34 183.204C1746.72 183.354 1748 183.977 1748.97 184.967C1749.94 185.957 1750.54 187.252 1750.66 188.633C1750.78 190.013 1750.42 191.394 1749.64 192.538C1748.86 193.683 1747.71 194.522 1746.37 194.911C1714.88 202.96 1687.23 218.542 1661.54 237.964C1645.83 249.843 1632.71 264.206 1620.8 279.891C1605.02 300.681 1587.62 320.138 1567.17 336.467C1561.91 340.665 1560.03 345.356 1559.49 351.417C1559.3 354.257 1558.92 357.082 1558.34 359.869C1557.07 365.181 1558.93 369.539 1562.55 373.012C1568.59 378.819 1569.91 385.489 1567.91 393.378C1566.24 399.955 1565.03 406.648 1563.65 413.306C1562.32 419.7 1557.58 424.207 1550.93 424.403C1544.28 424.598 1537.95 425.76 1532.21 429.485C1530.09 430.865 1527.6 429.313 1527.6 426.691C1527.6 425.242 1527.32 424.966 1525.88 425.38C1522.99 426.195 1520.22 427.406 1517.66 428.98C1514.57 430.911 1512.15 429.669 1512.21 426.07C1512.21 424.667 1511.51 425.104 1510.92 425.254C1507.84 425.991 1504.91 427.247 1502.25 428.968C1500.79 429.945 1499.36 430.325 1497.87 429.255C1496.39 428.186 1496.48 426.714 1496.82 425.173C1498.4 417.825 1501.42 411.259 1506.91 405.946C1510.97 402.037 1515.96 400.599 1521.32 400.024C1523.89 399.748 1525.6 398.667 1526.27 396.068C1526.67 394.47 1527.29 392.918 1527.69 391.308C1529.08 385.616 1527.59 382.292 1522.31 379.647C1517.82 377.489 1513.59 374.806 1509.73 371.655C1507.1 369.602 1504.8 367.155 1502.93 364.399C1502.51 363.557 1501.79 362.903 1500.91 362.565C1500.03 362.226 1499.06 362.228 1498.18 362.571C1497.39 362.847 1496.54 362.939 1495.31 363.146ZM1437.69 360.581C1438.05 359.886 1438.6 359.298 1439.26 358.878C1439.92 358.458 1440.69 358.221 1441.47 358.19C1442.69 358.613 1443.7 359.491 1444.28 360.639C1444.04 364.865 1445.43 369.022 1448.18 372.242C1448.55 372.679 1448.96 373.449 1449.69 373.07C1450.23 372.782 1450 372.081 1449.91 371.552C1449.3 367.904 1449 364.211 1449.02 360.512C1449.48 358.362 1449.85 356.189 1450.42 354.073C1450.72 352.621 1451.52 351.321 1452.69 350.405C1453.85 349.489 1455.31 349.016 1456.79 349.071C1460.98 348.933 1465.16 348.829 1469.35 348.68C1471.74 348.683 1474.08 348.018 1476.11 346.759C1480.77 343.689 1482.42 338.422 1480.87 331.557C1480.98 329.256 1480.92 326.95 1480.68 324.658C1480.24 318.048 1479.24 311.486 1477.72 305.04C1477.51 304.389 1477.52 303.687 1477.76 303.046C1477.99 302.404 1478.44 301.86 1479.02 301.498C1479.52 301.158 1480.11 300.966 1480.72 300.944C1481.33 300.921 1481.94 301.069 1482.47 301.371C1483.73 302.004 1484 303.303 1484.3 304.534C1485.78 310.605 1486.33 316.827 1487.17 322.99C1487.17 324.911 1486.91 326.854 1487.67 328.74C1487.67 331.178 1487.67 333.627 1487.78 336.065C1487.95 338.416 1487.63 340.776 1486.87 343.005C1486.1 345.235 1484.9 347.288 1483.33 349.045C1481.76 350.801 1479.85 352.226 1477.72 353.233C1475.58 354.241 1473.27 354.812 1470.92 354.912C1469.35 354.818 1467.78 355.065 1466.31 355.637C1476.75 357.647 1487.45 357.841 1497.94 356.212C1497.33 354.165 1496.68 352.302 1496.22 350.393C1494.53 343.493 1494.99 336.594 1496.22 329.694C1496.7 328.096 1497.18 326.497 1497.66 324.899C1497.91 324.416 1498.18 323.933 1498.39 323.439C1503.24 312.1 1511.73 304.637 1523.06 300.164C1525.21 299.313 1526.91 299.612 1528.17 301.659C1528.29 302.156 1528.31 302.673 1528.22 303.177C1528.13 303.682 1527.95 304.164 1527.67 304.594C1527.39 305.024 1527.03 305.393 1526.61 305.679C1526.18 305.965 1525.7 306.162 1525.2 306.259C1521.97 307.354 1518.95 308.978 1516.26 311.065C1507.88 317.241 1502.84 325.371 1501.92 335.869C1500.82 342.116 1501.7 348.552 1504.46 354.268C1504.76 355.053 1505.1 355.82 1505.48 356.568C1509.89 364.468 1516.67 369.723 1524.65 373.587C1531.31 376.819 1535.12 381.763 1534.7 389.445C1534.39 390.905 1534.07 392.366 1533.77 393.826C1532.21 401.381 1528.49 406.475 1519.97 406.74C1518.34 406.739 1516.73 407.104 1515.26 407.809C1513.79 408.513 1512.49 409.539 1511.47 410.811C1508.82 412.685 1507.31 415.41 1505.87 418.239C1505.68 418.63 1505.45 419.274 1505.63 419.539C1505.97 420.068 1506.61 419.746 1507.14 419.619C1508.53 419.088 1509.99 418.748 1511.47 418.607C1514.53 418.699 1515.48 416.733 1516.26 414.41C1517.95 413.26 1518.83 411.34 1520.26 409.925C1522.48 407.729 1524.25 407.809 1526.19 410.385C1526.29 411.159 1526.21 411.947 1525.95 412.683C1525.69 413.419 1525.25 414.082 1524.68 414.617C1523.14 416.046 1521.96 417.819 1521.23 419.792C1524.05 419.378 1526.55 418.354 1529.22 418.285C1529.71 418.285 1530.02 417.837 1530.26 417.423L1532.41 413.789C1533.45 412.639 1534.44 411.386 1535.51 410.236C1537.96 407.625 1539.64 407.706 1541.85 410.454C1541.92 411.238 1541.81 412.028 1541.52 412.762C1541.24 413.495 1540.78 414.15 1540.19 414.674C1539.14 415.839 1538.15 417.068 1537.25 418.354C1537.13 418.504 1537.05 418.677 1537 418.861C1536.96 419.045 1536.95 419.237 1536.98 419.424C1537.24 419.964 1537.79 419.7 1538.22 419.562C1542.55 418.193 1547.04 418.101 1551.5 417.86C1555.21 417.319 1556.85 414.835 1557.55 411.478C1559.03 404.359 1560.43 397.218 1562.02 390.123C1563.03 385.581 1562.23 381.786 1558.82 378.417C1553.61 373.254 1550.77 367.159 1551.92 359.57C1553.07 351.98 1554.22 344.62 1555.46 337.088C1556.61 330.189 1557.83 323.22 1559.02 316.286C1560.17 312.986 1560.76 312.595 1564.08 313.055C1565.75 314.205 1565.63 315.987 1565.68 317.655C1565.16 318.544 1564.9 319.558 1564.92 320.587C1564.46 324.278 1563.01 327.82 1563.34 331.615C1563.27 331.419 1563.19 331.247 1562.98 331.511H1563.33C1564.18 330.81 1565.06 330.12 1565.88 329.395C1582.79 314.553 1598.29 298.19 1612.19 280.512C1620.05 270.703 1627.32 260.411 1636.36 251.522C1656.97 231.111 1680.69 215.172 1706.73 202.546C1713.18 199.418 1719.89 196.866 1726.46 194.002H1726.4C1726.88 194.002 1727.37 194.002 1727.63 193.508C1732.13 192.622 1736.31 190.713 1741.28 189.46C1740.83 189.416 1740.38 189.397 1739.93 189.402C1739.39 189.402 1738.84 189.402 1738.29 189.402L1732.18 189.333C1731.7 189.129 1731.19 189.029 1730.68 189.041C1730.16 189.053 1729.66 189.176 1729.2 189.402C1727.53 189.46 1725.86 189.402 1724.21 189.563C1709.57 190.883 1695.16 194.131 1681.37 199.223C1663.33 205.686 1646.32 214.379 1629.23 222.923C1605.33 234.882 1581.56 247.21 1554.36 251.499C1555.51 252.775 1556.54 253.799 1557.51 254.949C1558.47 256.099 1559.4 257.249 1560.34 258.398C1563.03 262.656 1565.23 267.209 1566.89 271.968C1567.66 274.268 1566.95 276.004 1565.11 276.682C1563.27 277.361 1561.73 276.383 1560.81 274.107C1559.82 271.657 1559.2 269.035 1557.5 266.908C1554.49 260.537 1550.33 255.248 1543.69 252.246C1540.17 250.33 1536.28 249.218 1532.28 248.992C1522.55 248.222 1513.11 250.142 1503.65 251.993L1494.17 253.143C1487.93 253.143 1481.69 253.316 1475.65 251.349C1471.75 249.835 1468.31 247.349 1465.66 244.128C1463.35 240.628 1461.9 236.626 1461.45 232.456C1459.59 215.092 1458.54 197.67 1457.75 180.226C1457.26 169.026 1456.95 157.814 1456.6 146.602C1456.84 142.647 1456.68 138.679 1456.11 134.758C1454.38 121.33 1447.79 109.001 1437.58 100.102C1427.37 91.2026 1414.25 86.3496 1400.71 86.4605C1381.97 86.6675 1363.23 87.6449 1344.47 88.2084C1329.14 88.6108 1316.59 97.6723 1311.72 112.196C1310.11 117.003 1307.09 121.217 1303.06 124.293C1291.43 133.493 1279.84 142.692 1268.29 151.892C1263.14 156.054 1259.34 161.068 1257.75 167.554C1257.53 168.359 1257.3 169.164 1257.08 169.98C1256.08 175.603 1256.23 181.18 1255.67 186.758C1254.76 195.957 1260.59 202.742 1269.87 203.742C1279.45 204.777 1289.02 206.042 1298.56 207.387C1304.67 208.416 1310.95 207.764 1316.72 205.502C1342.57 195.006 1368.44 184.523 1394.3 174.051C1397.65 172.804 1400.74 170.939 1403.4 168.554C1407.08 165.104 1408 161.287 1406.02 157.055C1406.02 155.111 1406.7 153.605 1408.83 153.295C1410.96 152.984 1412.13 154.445 1412.73 156.296C1413.92 160.09 1413.64 164.189 1411.97 167.795C1405.69 182.479 1398.05 196.543 1389.15 209.802C1377.49 227.166 1363.23 242.184 1348.28 256.57C1344.75 259.951 1341.07 262.975 1336.13 264.01C1331.18 265.045 1326.68 263.838 1321.98 263.332C1317.27 262.826 1312.77 262.182 1307.78 261.595C1308.66 263.447 1308.93 265.195 1310.24 266.471C1310.87 267.619 1311.77 268.603 1312.85 269.342C1313.93 270.081 1315.18 270.555 1316.48 270.726C1319.42 271.266 1322.44 271.508 1325.4 271.876C1337.86 273.635 1348.81 270.461 1357.94 261.733C1367.08 253.005 1375.89 244.599 1384.61 235.745C1392.82 227.245 1402.4 220.183 1412.95 214.85C1417.07 212.805 1421.06 210.501 1424.88 207.951C1432.54 202.903 1438.21 196.348 1440.75 187.356C1441.44 184.952 1443.05 183.906 1444.82 184.366C1446.86 184.941 1447.58 186.758 1446.84 189.391C1444.67 196.984 1440.33 203.779 1434.35 208.94C1430.25 212.286 1425.84 215.235 1421.18 217.748C1415.02 221.198 1408.72 224.28 1402.89 228.259C1402.38 228.529 1401.96 228.955 1401.71 229.475C1401.45 229.995 1401.36 230.584 1401.46 231.157C1402.02 237.125 1402.39 243.127 1402.98 249.107C1403.77 256.961 1404.23 264.85 1405.44 272.669C1405.35 274.387 1405.44 276.11 1405.71 277.809C1406.42 285.269 1407.89 292.637 1410.11 299.796C1413.35 310.796 1418.59 321.109 1425.55 330.223C1426.1 330.925 1426.45 331.856 1427.76 331.143C1430.34 329.92 1433.2 329.382 1436.05 329.579C1440.5 329.579 1444.94 329.579 1449.37 329.579C1450.24 329.634 1451.11 329.481 1451.91 329.134C1452.71 328.786 1453.41 328.253 1453.97 327.579C1454.52 326.905 1454.9 326.109 1455.09 325.257C1455.27 324.405 1455.25 323.522 1455.03 322.68C1454.41 319.586 1453.78 316.493 1453.12 313.411C1452.74 311.675 1452.66 309.961 1454.49 309.065C1456.32 308.168 1458.01 308.881 1459.09 310.674C1459.88 314.32 1460.66 317.953 1461.45 321.599C1461.45 322.07 1461.45 322.542 1461.45 323.013C1461.82 330.614 1456.84 335.869 1449.31 335.869C1444.65 335.869 1439.99 335.777 1435.33 335.869C1430.87 335.996 1427.28 337.698 1425.27 342.022L1424.86 342.953C1422.39 348.576 1420.59 354.36 1420.97 360.616C1420.81 362.782 1421.09 364.958 1421.8 367.011C1422.51 369.064 1423.63 370.949 1425.1 372.552C1425.47 368.068 1425.7 364.215 1427.11 360.581C1427.3 360.012 1427.62 359.496 1428.05 359.074C1428.47 358.652 1428.99 358.337 1429.57 358.155C1430.38 358.054 1431.2 358.235 1431.9 358.669C1432.6 359.102 1433.13 359.761 1433.4 360.536C1433.14 365.549 1433.75 370.264 1437.8 373.852C1436.97 369.471 1436.93 364.976 1437.69 360.581ZM1372.11 365.779L1372.21 365.871L1372.08 365.791C1371.81 361.191 1371.02 356.672 1372.08 352.106C1372.43 351.418 1372.98 350.853 1373.65 350.486C1374.33 350.12 1375.1 349.971 1375.87 350.06C1376.45 350.179 1376.98 350.457 1377.41 350.863C1377.85 351.269 1378.15 351.787 1378.31 352.359C1378.69 357.281 1379.65 361.927 1384.14 365.009C1383.52 360.707 1383.28 356.358 1383.44 352.014C1383.75 350.301 1383.99 348.565 1384.36 346.886C1385.35 342.401 1387.57 340.653 1392.18 340.619C1395.35 340.619 1398.51 340.377 1401.68 340.504C1408.22 340.78 1412.46 337.617 1415.1 331.902C1415.33 331.396 1415.49 330.856 1415.76 330.384C1416.06 329.843 1416.18 329.223 1416.12 328.608C1416.07 327.992 1415.82 327.409 1415.42 326.934C1411.88 321.318 1408.9 315.358 1406.55 309.145C1406.31 308.524 1406.3 307.731 1405.58 307.374C1404.43 309.674 1403.27 312.043 1402.12 314.377C1400.97 316.712 1399.09 318.781 1397.64 321.035C1397.23 321.289 1396.85 321.573 1396.49 321.886C1394.63 323.884 1392.35 325.45 1389.82 326.471C1387.29 327.493 1384.57 327.945 1381.84 327.797C1377.42 327.682 1373 327.739 1368.58 327.797C1366.53 327.818 1364.53 328.468 1362.85 329.66C1361.17 330.853 1359.9 332.53 1359.21 334.467C1356.52 340.083 1355.07 346.214 1354.97 352.44C1354.92 354.656 1355.31 356.861 1356.12 358.924C1356.93 360.988 1358.14 362.869 1359.69 364.457C1359.31 359.926 1360.23 356.258 1361.08 352.578C1361.34 351.945 1361.74 351.378 1362.25 350.918C1362.76 350.459 1363.36 350.118 1364.02 349.922C1364.79 349.872 1365.56 350.067 1366.22 350.48C1366.88 350.892 1367.39 351.502 1367.69 352.221C1367.69 353.716 1367.61 355.234 1367.76 356.718C1368.12 360.179 1369.07 363.468 1372.06 365.779H1372.11ZM1397.57 182.767C1398.36 181.93 1398.88 180.878 1399.07 179.743C1395.86 180.893 1392.9 181.905 1389.95 182.997C1389.4 183.111 1388.91 183.439 1388.6 183.908C1388.29 184.378 1388.18 184.952 1388.29 185.504C1388.96 188.954 1389.65 192.312 1390.38 195.957C1391.1 195.002 1391.65 193.923 1392 192.772C1394.16 189.617 1396.03 186.267 1397.57 182.767ZM1372.06 221.865C1374.85 218.708 1377.39 215.34 1379.66 211.792C1380.61 211.075 1381.35 210.113 1381.79 209.009C1378.34 209.664 1374.89 210.274 1371.56 210.941C1370.01 211.251 1368.94 211.999 1369.26 213.85C1369.78 216.989 1370.28 220.117 1370.82 223.406C1371.14 223.061 1371.36 222.854 1371.54 222.624C1371.73 222.394 1371.89 222.118 1372.06 221.865ZM1322.08 256.8C1322.99 256.996 1323.92 257.142 1324.85 257.237C1328.22 257.375 1331.57 258.686 1334.97 257.386L1336.35 257.272L1336.98 256.961C1338.2 256.647 1339.3 255.988 1340.15 255.064C1338.09 255.129 1336.04 254.628 1334.24 253.615C1332.57 252.58 1330.88 251.568 1329.18 250.556C1328.44 250.119 1327.66 249.578 1326.78 250.211C1324.12 252.177 1321.47 254.167 1318.56 256.329C1319.69 256.728 1320.89 256.889 1322.08 256.8ZM1360.31 235.112C1361.08 234.667 1361.65 233.948 1361.91 233.1C1358.23 233.1 1354.87 233.1 1351.56 233.1C1350.34 233.1 1349.26 233.295 1349.07 234.675C1348.67 238.884 1348.37 243.116 1347.92 248.038L1350.22 245.577C1353.73 242.242 1357.1 238.754 1360.31 235.112ZM1470.97 411.432C1472.92 411.087 1474.9 410.891 1476.78 410.374C1479.73 409.569 1482.8 410.489 1485.7 409.546C1487.14 409.449 1488.5 408.857 1489.54 407.872C1490.59 406.886 1491.27 405.568 1491.45 404.141C1493.21 396.206 1494.91 388.26 1496.54 380.291C1496.89 378.697 1496.84 377.04 1496.39 375.471C1495.94 373.902 1495.1 372.472 1493.95 371.31C1491.94 369.291 1490.17 367.059 1488.65 364.652C1488.47 364.259 1488.16 363.94 1487.77 363.745C1487.38 363.551 1486.94 363.494 1486.52 363.583C1481.85 364.077 1477.21 363.479 1472.56 363.054C1467.45 362.568 1462.4 361.539 1457.5 359.984C1456.06 359.535 1455.89 359.915 1455.69 361.271C1455.3 363.928 1457.1 364.606 1458.9 365.434C1465.5 368.47 1469.12 373.484 1468.98 380.878C1468.84 381.327 1468.73 381.784 1468.64 382.246C1467.09 393.746 1464.36 396.632 1453.12 398.644C1452.97 398.644 1452.81 398.702 1452.66 398.748C1449.96 399.438 1447.35 400.254 1445.75 402.796C1442.88 404.221 1441.78 407.096 1440.28 409.626C1439.97 410.144 1439.45 410.776 1439.84 411.363C1440.38 412.11 1441.13 411.363 1441.76 411.259C1442.81 410.93 1443.88 410.68 1444.96 410.512C1446.26 410.582 1447.54 410.185 1448.57 409.391C1449.6 408.598 1450.31 407.461 1450.57 406.188C1451.72 404.842 1452.88 403.486 1454.12 402.152C1456.59 399.403 1458.31 399.461 1460.56 402.336C1460.85 404.497 1459.41 405.843 1458.2 407.28C1456.91 408.485 1455.96 410.019 1455.48 411.719C1457.1 411.162 1458.78 410.776 1460.49 410.569C1463.86 410.512 1465.39 408.568 1466.31 405.728C1467.58 404.359 1468.81 402.968 1470.11 401.623C1472.1 399.564 1473.83 399.691 1475.75 402.002C1475.99 402.706 1476.03 403.467 1475.85 404.191C1475.66 404.914 1475.27 405.569 1474.72 406.073C1473.26 407.706 1471.68 409.258 1471 411.432L1470.89 411.57L1470.97 411.432ZM1311.72 253.362C1312.17 253.04 1312.6 252.683 1313.07 252.407C1317.05 250.107 1319.89 247.267 1318.93 242.15C1318.9 241.376 1318.98 240.603 1319.16 239.85C1319.96 235.542 1320.76 231.229 1321.55 226.913L1324.47 217.99C1325.42 216.509 1326.08 214.863 1326.42 213.137C1323.85 214.379 1321.48 215.437 1319.18 216.656C1317.21 217.679 1316.29 219.128 1317.18 221.509C1318.06 223.889 1318.63 226.327 1319.32 228.742C1320.56 233.008 1319.32 235.894 1315.29 237.861C1313.16 238.896 1311 239.839 1308.88 240.885C1307.46 241.586 1306.21 242.644 1306.58 244.335C1307.37 247.923 1308.39 251.453 1309.33 255.064C1310.27 254.726 1311.1 254.138 1311.72 253.362ZM1336.4 213.206C1335.01 218.742 1334.55 224.47 1335.05 230.156C1340.8 222.406 1346.55 215.46 1352.45 208.595C1357.88 203.006 1363.31 197.414 1368.72 191.817C1368.9 191.817 1369.13 191.817 1368.99 191.507C1368.99 191.507 1368.7 191.61 1368.55 191.668C1368.31 191.681 1368.08 191.719 1367.85 191.783L1340.23 202.914C1339.89 203.015 1339.57 203.198 1339.31 203.449C1339.05 203.699 1338.85 204.009 1338.74 204.352C1337.65 207.212 1336.86 210.18 1336.4 213.206ZM1344.83 228.604C1347.45 227.12 1350.11 226.166 1353.05 226.672C1355.25 226.972 1357.47 227.072 1359.69 226.971C1360.27 227.001 1360.84 226.909 1361.38 226.703C1361.91 226.497 1362.4 226.18 1362.81 225.774C1363.21 225.367 1363.53 224.88 1363.74 224.343C1363.94 223.807 1364.04 223.233 1364.01 222.659C1363.99 220.6 1363.73 218.551 1363.23 216.552C1361.77 209.285 1365.43 205.053 1371.4 204.501C1373.69 204.216 1375.96 203.782 1378.19 203.202C1379.2 202.984 1380.15 202.551 1380.97 201.931C1381.8 201.312 1382.48 200.521 1382.97 199.614C1384.76 196.555 1383.27 193.6 1382.83 190.621C1382.61 189.08 1381.91 189.057 1380.82 190.046C1378.3 192.346 1375.63 194.462 1373.16 196.808C1365.25 204.229 1357.8 212.125 1350.84 220.451C1348.71 223.05 1346.39 225.51 1344.83 228.604ZM1327.99 228.5C1326.75 232.838 1325.9 237.28 1325.46 241.77C1325.34 243.058 1325.88 243.748 1327.22 243.61C1329.52 243.357 1331.51 244.415 1333.41 245.588C1334.69 246.382 1335.94 247.21 1337.29 247.888C1339.75 249.119 1341.18 248.279 1341.64 245.588C1342.55 240.368 1341.57 234.894 1344.05 229.696C1343.74 229.766 1343.44 229.905 1343.18 230.103C1342.92 230.302 1342.71 230.556 1342.56 230.846C1340.34 233.928 1338.11 236.998 1335.9 240.046C1335.02 241.264 1334 242.207 1332.34 241.862C1331.63 241.739 1330.98 241.387 1330.5 240.859C1330.01 240.331 1329.71 239.657 1329.64 238.942C1329.51 238.24 1329.41 237.539 1329.22 236.86C1328.52 234.365 1329.07 231.674 1327.99 228.5ZM1419.87 337.41C1420.6 336.881 1421.57 336.467 1421.33 335.329C1421.33 335.237 1421.03 335.076 1420.97 335.11C1420.62 335.382 1420.34 335.731 1420.15 336.13C1419.95 336.529 1419.86 336.968 1419.87 337.41Z" fill="#090805"/>
<path d="M1504.42 354.315C1501.67 348.598 1500.79 342.162 1501.89 335.916C1502.52 335.429 1503 334.77 1503.26 334.018C1506.9 327.238 1511.92 321.301 1518.01 316.597C1522.59 313.062 1527.68 310.257 1533.12 308.283C1535.5 307.351 1536.49 305.684 1535.9 303.775C1535.32 301.866 1533.67 300.912 1531.19 301.268L1528.15 301.717C1526.89 299.67 1525.19 299.417 1523.04 300.222C1511.71 304.695 1503.21 312.158 1498.37 323.496C1498.16 323.991 1497.89 324.474 1497.63 324.957L1487.12 323.048C1486.28 316.884 1485.73 310.663 1484.24 304.591C1483.94 303.361 1483.68 302.062 1482.41 301.429C1481.88 301.127 1481.28 300.979 1480.67 301.001C1480.06 301.024 1479.47 301.216 1478.96 301.556C1478.38 301.917 1477.94 302.462 1477.7 303.103C1477.47 303.745 1477.45 304.447 1477.66 305.097C1479.19 311.544 1480.18 318.105 1480.63 324.715C1480.86 327.007 1480.93 329.314 1480.81 331.615C1479.46 332.604 1479.56 334.26 1479.05 335.617C1477.43 339.975 1474.67 342.516 1469.73 342.585C1464.8 342.654 1459.77 342.919 1454.78 343.022C1453.39 343.007 1452.01 343.298 1450.75 343.876C1449.49 344.453 1448.37 345.302 1447.47 346.363C1446.58 347.423 1445.93 348.668 1445.57 350.009C1445.21 351.35 1445.15 352.753 1445.4 354.119C1445.72 356.154 1445.95 358.19 1446.23 360.225L1444.21 360.72C1443.63 359.572 1442.62 358.694 1441.41 358.27C1441.41 357.557 1441.41 356.844 1441.41 356.131C1441.49 355.593 1441.36 355.043 1441.06 354.593C1440.75 354.143 1440.28 353.826 1439.75 353.706C1439.22 353.586 1438.66 353.673 1438.19 353.948C1437.72 354.223 1437.37 354.666 1437.22 355.188C1436.34 356.696 1435.81 358.382 1435.66 360.122C1435.34 360.374 1434.97 360.547 1434.57 360.627C1434.17 360.707 1433.76 360.692 1433.36 360.582C1433.09 359.807 1432.57 359.148 1431.87 358.715C1431.17 358.282 1430.35 358.1 1429.53 358.201C1429.53 357.58 1429.53 356.948 1429.53 356.315C1429.53 355.096 1429.26 354.096 1427.96 353.751C1426.66 353.406 1425.78 354.28 1425.24 355.43C1424.42 356.872 1423.92 358.478 1423.79 360.133C1422.95 360.904 1421.9 360.536 1420.95 360.662C1420.57 354.407 1422.36 348.622 1424.84 342.999L1425.25 342.068C1425.85 341.899 1426.43 341.66 1426.98 341.355C1429.34 339.746 1432.18 338.97 1435.03 339.147C1439.38 339.25 1443.74 339.216 1448.09 339.147C1451.73 339.147 1455.37 339.4 1459 338.756C1462.62 338.112 1464.75 335.858 1464.69 332.075C1464.64 328.334 1463.49 324.691 1461.38 321.599L1459.02 310.675C1459.83 310.675 1460.77 310.675 1461.06 309.801C1461.35 308.927 1460.46 308.582 1459.91 308.122C1455.44 303.718 1451.83 298.525 1449.25 292.805C1442.22 278.143 1439.97 262.308 1438.07 246.416C1437.43 241 1437.07 235.561 1436.57 230.133C1436.57 229.662 1436.57 229.087 1436.04 228.891C1435.52 228.696 1435.25 229.236 1434.97 229.604C1433.82 231.191 1432.59 232.778 1431.4 234.353C1423.47 244.829 1415.29 255.11 1408.93 266.701C1407.78 268.725 1407.33 271.186 1405.3 272.681C1404.09 264.861 1403.63 256.973 1402.84 249.119C1402.25 243.139 1401.88 237.136 1401.32 231.168C1401.22 230.595 1401.31 230.007 1401.57 229.487C1401.83 228.966 1402.24 228.541 1402.76 228.27C1408.58 224.292 1414.89 221.164 1421.04 217.76C1425.75 215.254 1430.21 212.305 1434.35 208.951C1434.91 209.635 1435.2 210.498 1435.16 211.378C1435.43 214.69 1435.64 218.001 1435.78 221.313C1435.89 223.362 1436.16 225.4 1436.59 227.408C1439.55 223.542 1442.15 219.403 1444.33 215.046C1448.61 206.818 1451.23 197.833 1452.06 188.598C1452.63 180.394 1452.08 172.15 1450.44 164.093C1450.36 163.279 1449.99 162.52 1449.4 161.951C1448.82 161.382 1448.04 161.041 1447.23 160.988C1446.44 160.835 1445.63 160.944 1444.91 161.3C1444.19 161.655 1443.61 162.236 1443.26 162.954C1442.83 163.973 1442.56 165.051 1442.45 166.151C1441.49 171.935 1439.78 177.57 1437.37 182.917C1433.26 191.932 1425.93 197.74 1417.65 202.466C1405.23 209.481 1393.77 218.077 1383.57 228.04C1372.92 238.562 1362.5 249.291 1351.35 259.342C1345.14 264.953 1338.38 268.231 1329.76 267.955C1323.19 267.736 1316.68 266.908 1310.2 266.414C1308.91 265.137 1308.62 263.389 1307.73 261.538C1312.7 262.159 1317.31 262.78 1321.93 263.274C1326.56 263.769 1331.31 264.953 1336.08 263.953C1340.86 262.952 1344.7 259.894 1348.23 256.513C1363.19 242.127 1377.49 227.109 1389.14 209.791C1398.04 196.531 1405.68 182.468 1411.96 167.784C1413.63 164.178 1413.91 160.079 1412.72 156.285C1412.12 154.422 1411.1 152.938 1408.82 153.283C1406.54 153.628 1406.03 155.1 1406.01 157.043C1404 160.01 1401.83 162.609 1398.2 163.943C1382.28 169.693 1366.45 175.707 1350.51 181.468C1342.18 184.458 1333.86 187.563 1325.27 189.587C1323.35 190.123 1321.33 190.183 1319.38 189.762C1317.43 189.342 1315.61 188.452 1314.08 187.172C1312.18 185.364 1310.75 183.123 1309.91 180.64C1307.25 174.453 1302.62 170.705 1295.93 169.854C1288.56 168.945 1281.14 168.543 1273.75 167.945C1267.99 167.473 1262.37 167.105 1257.09 169.98C1257.3 169.164 1257.53 168.359 1257.75 167.554C1260.2 164.668 1262.24 161.459 1265.4 159.182C1279.41 149.155 1293.32 138.944 1307.39 128.962C1311.69 126.09 1314.93 121.878 1316.59 116.98C1320.73 104.607 1329.59 97.5804 1342.18 94.8321C1346.94 93.7856 1351.79 93.8201 1356.59 93.6822C1363.37 93.4752 1370.15 92.6127 1376.95 93.1532C1375.04 97.2814 1375.94 101.87 1379.14 104.365C1379.02 104.974 1378.88 105.584 1378.78 106.193C1378.45 108.148 1378.99 109.643 1381 110.322C1382.72 110.897 1384.19 109.954 1384.97 107.941C1385.25 107.217 1385.24 106.366 1385.86 105.791L1386.31 104.802H1386.23C1388.73 103.928 1390.83 102.261 1393.63 101.847C1397.78 101.214 1401.86 100.352 1406.04 99.9148C1415.3 98.8347 1424.64 100.984 1432.5 105.998C1441.13 111.449 1446.37 119.625 1450.46 128.698C1452.91 134.519 1454.96 140.501 1456.59 146.602C1456.98 157.814 1457.3 169.026 1457.74 180.226C1458.53 197.671 1459.59 215.092 1461.44 232.456C1461.89 236.626 1463.34 240.628 1465.65 244.128C1467.23 250.545 1470.7 255.386 1477.03 257.858C1477.72 260.457 1478.35 263.067 1479.09 265.643C1479.58 267.621 1480.78 269.35 1482.47 270.501C1484.15 271.652 1486.2 272.145 1488.22 271.887C1490.33 271.702 1492.29 270.707 1493.69 269.109C1495.08 267.511 1495.8 265.436 1495.69 263.32C1495.69 261.975 1495.69 260.629 1495.69 259.284C1498.96 258.714 1502.26 258.383 1505.57 258.295C1507.07 261.864 1508.33 265.529 1509.35 269.265C1511.46 275.912 1516.95 279.339 1523.81 278.327C1529.74 277.453 1534.26 271.945 1534.17 265.471C1534.17 262.481 1533.84 259.491 1533.67 256.49C1537.16 256.578 1540.63 257.029 1544.03 257.835C1544.16 259.641 1544.28 261.457 1544.45 263.263C1544.78 266.782 1546.4 268.909 1549.34 269.794C1552.29 270.68 1555.19 269.725 1557.4 266.885C1559.1 269.012 1559.7 271.634 1560.71 274.084C1561.63 276.384 1563.19 277.315 1565.01 276.66C1566.83 276.004 1567.55 274.233 1566.78 271.945C1565.16 267.199 1563 262.654 1560.34 258.399C1560.96 258.307 1561.59 258.249 1562.22 258.123C1583.34 253.649 1602.79 244.91 1621.53 234.503C1636.67 226.097 1651.44 217.07 1667.09 209.503C1679.07 203.547 1691.53 198.615 1704.35 194.761C1712.65 192.437 1721.11 190.704 1729.66 189.575L1732.2 189.311L1738.32 189.403C1737.8 189.766 1737.18 189.967 1736.55 189.978C1716.47 193.738 1696.98 199.407 1678.6 208.376C1657.82 218.565 1639.99 232.652 1624.34 249.659C1612.83 262.182 1602.47 275.671 1591.16 288.366C1582.98 297.565 1574.3 306.132 1564.1 313.112C1560.79 312.652 1560.19 313.043 1559.04 316.344C1548.5 317.344 1541.66 323.174 1537.61 332.684C1535.25 338.204 1533.7 344.069 1530.81 349.37C1525.65 358.811 1514.9 361.283 1506.15 355.039C1505.67 354.606 1505.06 354.35 1504.42 354.315V354.315ZM1428.72 122.419C1429.31 121.672 1428.92 120.913 1428.72 120.119C1427.85 116.485 1426.13 113.109 1423.7 110.276C1422.32 108.69 1420.64 107.397 1418.76 106.472C1416.87 105.547 1414.82 105.01 1412.72 104.892C1410.62 104.774 1408.52 105.078 1406.54 105.785C1404.57 106.493 1402.75 107.589 1401.21 109.011C1392.4 116.853 1391.83 132.941 1400.2 141.646C1402.76 144.291 1405.74 146.66 1409.87 146.303C1419.07 148.028 1425.98 143.681 1428.59 134.608C1429.57 130.609 1429.61 126.438 1428.72 122.419V122.419Z" fill="#059E67"/>
<path d="M1405.44 272.646C1407.46 271.151 1407.95 268.69 1409.06 266.667C1415.41 255.075 1423.61 244.818 1431.53 234.319C1432.68 232.744 1433.92 231.157 1435.11 229.57C1435.39 229.202 1435.61 228.65 1436.18 228.857C1436.76 229.064 1436.67 229.627 1436.71 230.099C1437.21 235.526 1437.56 240.966 1438.21 246.382C1440.11 262.274 1442.36 278.108 1449.39 292.77C1451.96 298.49 1455.58 303.684 1460.05 308.087C1460.54 308.547 1461.41 308.996 1461.2 309.766C1460.98 310.537 1459.96 310.606 1459.16 310.64C1458.07 308.846 1456.5 308.076 1454.56 309.03C1452.61 309.985 1452.81 311.64 1453.19 313.377C1453.86 316.459 1454.48 319.552 1455.1 322.645C1455.32 323.488 1455.34 324.371 1455.16 325.223C1454.97 326.075 1454.59 326.871 1454.04 327.544C1453.48 328.218 1452.78 328.751 1451.98 329.099C1451.18 329.447 1450.31 329.6 1449.44 329.545C1445.01 329.545 1440.57 329.545 1436.13 329.545C1433.27 329.347 1430.42 329.886 1427.83 331.109C1426.52 331.822 1426.17 330.89 1425.62 330.189C1418.64 321.091 1413.38 310.789 1410.11 299.796C1407.89 292.626 1406.42 285.247 1405.72 277.775C1405.45 276.08 1405.35 274.361 1405.44 272.646V272.646Z" fill="#87B97A"/>
<path d="M1257.09 170.003C1262.37 167.128 1267.99 167.496 1273.75 167.968C1281.14 168.566 1288.56 168.968 1295.93 169.877C1302.62 170.705 1307.25 174.476 1309.86 180.64C1310.71 183.123 1312.14 185.364 1314.04 187.172C1315.57 188.46 1317.4 189.353 1319.35 189.774C1321.31 190.195 1323.34 190.131 1325.27 189.587C1333.91 187.563 1342.23 184.458 1350.58 181.445C1366.52 175.695 1382.35 169.67 1398.27 163.92C1401.9 162.609 1404.02 160.01 1406.08 157.021C1408.02 161.264 1407.14 165.07 1403.46 168.52C1400.78 170.923 1397.68 172.8 1394.3 174.051C1368.45 184.554 1342.59 195.037 1316.72 205.502C1310.95 207.768 1304.68 208.424 1298.56 207.399C1289.03 206.031 1279.45 204.789 1269.87 203.754C1260.59 202.742 1254.76 195.98 1255.67 186.758C1256.23 181.181 1256.08 175.603 1257.09 170.003ZM1292.58 178.501C1292.58 176.305 1291.33 174.672 1289.73 174.787C1287.79 174.925 1287.01 176.224 1286.93 178.007C1286.87 178.419 1286.9 178.84 1287.01 179.241C1287.12 179.642 1287.32 180.014 1287.59 180.331C1287.86 180.648 1288.2 180.904 1288.58 181.08C1288.96 181.257 1289.37 181.35 1289.78 181.353C1291.9 181.353 1292.34 179.858 1292.58 178.501ZM1271.19 176.19C1270.89 174.454 1270.21 173.051 1268.3 172.89C1266.69 172.752 1265.43 174.362 1265.46 176.339C1265.5 178.317 1266.8 179.709 1268.48 179.548C1270.47 179.306 1270.9 177.788 1271.19 176.19Z" fill="#3F764B"/>
<path d="M1504.42 354.315C1505.06 354.367 1505.65 354.635 1506.11 355.073C1514.87 361.318 1525.62 358.845 1530.77 349.404C1533.67 344.103 1535.21 338.238 1537.57 332.719C1541.62 323.209 1548.47 317.379 1559.01 316.378C1557.86 323.278 1556.59 330.235 1555.45 337.181C1554.23 344.667 1553.15 352.13 1551.91 359.662C1550.66 367.194 1553.55 373.346 1558.81 378.509C1562.26 381.878 1563.02 385.673 1562.01 390.215C1560.42 397.311 1559.02 404.452 1557.54 411.57C1556.84 414.927 1555.24 417.411 1551.49 417.952C1550.87 416.457 1550.02 415.068 1548.97 413.835C1551.86 413.456 1553.32 411.593 1554.17 408.994C1556.11 402.488 1557.53 395.84 1558.42 389.111C1558.81 386.697 1556.8 385.478 1554.56 386.685C1552.38 387.952 1550.09 389.029 1547.72 389.905C1543.32 391.388 1539.02 390.802 1534.72 389.537C1535.13 381.855 1531.32 376.888 1524.66 373.679C1516.69 369.816 1509.9 364.56 1505.49 356.66C1505.09 355.898 1504.74 355.115 1504.42 354.315V354.315Z" fill="#3F764B"/>
<path d="M1376.95 93.1532C1370.15 92.6127 1363.37 93.4752 1356.59 93.6822C1351.79 93.8202 1346.94 93.7857 1342.18 94.8321C1329.59 97.5805 1320.73 104.607 1316.56 116.957C1314.89 121.855 1311.66 126.067 1307.35 128.939C1293.32 138.944 1279.41 149.155 1265.44 159.205C1262.27 161.505 1260.24 164.691 1257.79 167.577C1259.34 161.068 1263.14 156.055 1268.29 151.938C1279.84 142.669 1291.43 133.47 1303.06 124.339C1307.1 121.248 1310.12 117.013 1311.73 112.185C1316.59 97.615 1329.15 88.5535 1344.47 88.2085C1363.23 87.7025 1381.97 86.7251 1400.72 86.5296C1414.27 86.4188 1427.38 91.2718 1437.59 100.171C1447.8 109.07 1454.39 121.399 1456.12 134.827C1456.69 138.748 1456.86 142.716 1456.62 146.671C1454.98 140.57 1452.93 134.588 1450.48 128.767C1446.39 119.694 1441.15 111.518 1432.52 106.067C1424.67 101.053 1415.32 98.9038 1406.06 99.9838C1401.88 100.421 1397.8 101.283 1393.66 101.916C1390.91 102.33 1388.76 103.997 1386.25 104.871C1386.68 103.268 1387.52 101.805 1388.68 100.627C1389.85 99.4489 1391.31 98.5968 1392.91 98.1554C1395.33 97.431 1397.77 96.8445 1400.22 96.2925C1400.96 96.1528 1401.62 95.7237 1402.05 95.099C1402.49 94.4743 1402.65 93.7046 1402.52 92.9577C1402.52 92.5799 1402.44 92.2055 1402.3 91.8565C1402.15 91.5075 1401.94 91.191 1401.67 90.9254C1401.4 90.6598 1401.08 90.4505 1400.73 90.3098C1400.38 90.1691 1400.01 90.0998 1399.63 90.1059C1399 90.1059 1398.36 90.1059 1397.73 90.1059C1396.95 89.7392 1396.08 89.5997 1395.22 89.7034C1388.94 89.3771 1382.68 90.5601 1376.95 93.1532V93.1532Z" fill="#87B97A"/>
<path d="M1310.2 266.448C1316.73 266.943 1323.23 267.771 1329.76 267.989C1338.38 268.265 1345.14 264.988 1351.35 259.376C1362.45 249.326 1372.88 238.597 1383.57 228.075C1393.77 218.112 1405.23 209.515 1417.65 202.5C1425.93 197.751 1433.26 191.944 1437.37 182.951C1439.78 177.604 1441.49 171.969 1442.45 166.185C1442.56 165.085 1442.83 164.008 1443.26 162.989C1443.61 162.264 1444.19 161.676 1444.9 161.314C1445.62 160.952 1446.44 160.837 1447.23 160.988C1448.04 161.039 1448.8 161.372 1449.39 161.929C1449.97 162.486 1450.35 163.232 1450.44 164.035C1452.08 172.093 1452.63 180.336 1452.06 188.54C1451.23 197.776 1448.61 206.761 1444.33 214.989C1442.15 219.345 1439.55 223.485 1436.59 227.35C1436.16 225.342 1435.89 223.305 1435.78 221.256C1435.64 217.944 1435.43 214.632 1435.16 211.32C1435.2 210.44 1434.91 209.577 1434.35 208.894C1440.33 203.733 1444.67 196.938 1446.84 189.345C1447.58 186.712 1446.84 184.895 1444.82 184.32C1443.02 183.825 1441.44 184.906 1440.75 187.31C1438.21 196.302 1432.55 202.857 1424.88 207.905C1421.06 210.455 1417.07 212.759 1412.95 214.805C1402.4 220.137 1392.83 227.2 1384.61 235.699C1375.87 244.53 1366.88 253.132 1357.9 261.733C1348.91 270.335 1337.82 273.635 1325.36 271.876C1322.39 271.462 1319.38 271.22 1316.43 270.726C1315.13 270.553 1313.89 270.075 1312.8 269.332C1311.72 268.588 1310.83 267.601 1310.2 266.448V266.448Z" fill="#3F764B"/>
<path d="M1726.4 194.209C1719.83 197.073 1713.12 199.626 1706.67 202.753C1680.63 215.403 1656.92 231.318 1636.3 251.729C1627.32 260.618 1620.04 270.91 1612.14 280.719C1598.23 298.397 1582.73 314.76 1565.83 329.602C1565 330.327 1564.13 331.017 1563.27 331.718V331.776C1562.93 327.97 1564.43 324.428 1564.84 320.736C1564.82 319.708 1565.08 318.694 1565.6 317.804C1566.66 317.47 1567.62 316.891 1568.42 316.114C1581.66 306.144 1592.69 293.943 1603.39 281.432C1614.7 268.219 1625.59 254.638 1638.36 242.748C1645.21 236.292 1652.49 230.303 1660.14 224.821C1679.53 211.09 1700.94 201.58 1723.54 194.566C1724.46 194.262 1725.43 194.14 1726.4 194.209V194.209Z" fill="#059E67"/>
<path d="M1729.64 189.587C1721.09 190.716 1712.63 192.449 1704.32 194.773C1691.51 198.627 1679.05 203.558 1667.07 209.515C1651.45 217.082 1636.65 226.108 1621.5 234.514C1602.76 244.921 1583.32 253.661 1562.19 258.134C1561.57 258.261 1560.94 258.318 1560.32 258.41C1559.37 257.26 1558.45 256.11 1557.49 254.96C1556.52 253.81 1555.51 252.798 1554.33 251.51C1581.53 247.221 1605.3 234.894 1629.21 222.935C1646.3 214.391 1663.3 205.686 1681.35 199.235C1695.14 194.143 1709.55 190.895 1724.19 189.575C1725.84 189.437 1727.51 189.472 1729.17 189.414L1729.64 189.587Z" fill="#87B97A"/>
<path d="M1726.4 194.209C1725.46 194.149 1724.51 194.27 1723.61 194.566C1701.01 201.58 1679.6 211.09 1660.21 224.821C1652.56 230.303 1645.28 236.292 1638.43 242.748C1625.66 254.638 1614.77 268.219 1603.46 281.432C1592.76 293.943 1581.73 306.144 1568.49 316.114C1567.69 316.891 1566.73 317.47 1565.67 317.804C1565.67 316.079 1565.74 314.354 1564.07 313.204C1574.26 306.224 1582.95 297.646 1591.13 288.458C1602.43 275.809 1612.78 262.274 1624.3 249.751C1639.96 232.744 1657.78 218.703 1678.56 208.468C1696.97 199.453 1716.44 193.784 1736.52 190.07C1737.17 190.039 1737.8 189.806 1738.32 189.403C1738.87 189.403 1739.47 189.403 1739.97 189.403C1740.4 189.471 1740.83 189.564 1741.26 189.679C1736.29 190.932 1732.11 192.841 1727.61 193.726C1727.38 193.71 1727.15 193.746 1726.94 193.832C1726.72 193.918 1726.53 194.051 1726.38 194.221L1726.4 194.209Z" fill="#3F764B"/>
<path d="M1533.73 256.513C1533.9 259.514 1534.2 262.504 1534.22 265.494C1534.22 271.968 1529.76 277.476 1523.87 278.35C1516.96 279.362 1511.52 275.935 1509.4 269.288C1508.39 265.552 1507.13 261.887 1505.63 258.318C1505.63 256.018 1503.91 254.247 1503.74 251.993C1513.2 250.154 1522.65 248.222 1532.38 248.992C1532.49 251.548 1532.94 254.078 1533.73 256.513V256.513Z" fill="#3F764B"/>
<path d="M1468.96 380.878C1469.1 373.449 1465.51 368.47 1458.88 365.434C1457.08 364.606 1455.28 363.928 1455.67 361.272C1455.87 359.915 1456.04 359.535 1457.48 359.984C1462.38 361.535 1467.43 362.56 1472.54 363.042C1477.14 363.468 1481.83 364.066 1486.5 363.571C1486.92 363.482 1487.36 363.539 1487.75 363.734C1488.14 363.928 1488.44 364.248 1488.63 364.641C1490.15 367.048 1491.93 369.281 1493.94 371.299C1495.09 372.46 1495.93 373.891 1496.38 375.46C1496.83 377.029 1496.88 378.686 1496.53 380.28C1494.93 388.249 1493.2 396.195 1491.44 404.13C1491.26 405.556 1490.58 406.875 1489.54 407.86C1488.49 408.846 1487.13 409.437 1485.69 409.534L1483.33 405.693C1486.37 404.785 1487.79 402.577 1488.65 399.633C1490.27 393.791 1491.53 387.853 1492.42 381.855C1492.64 380.475 1492.89 379.176 1491.54 378.233C1490.18 377.29 1489.04 378.233 1487.88 378.877C1481.87 382.281 1475.67 384.029 1468.96 380.878Z" fill="#3F764B"/>
<path d="M1534.67 389.491C1538.97 390.756 1543.28 391.342 1547.67 389.859C1550.04 388.983 1552.33 387.906 1554.52 386.639C1556.75 385.432 1558.76 386.639 1558.37 389.065C1557.49 395.825 1556.07 402.504 1554.13 409.04C1553.28 411.639 1551.83 413.502 1548.93 413.881C1546.88 412.053 1544.88 410.144 1541.79 410.592C1539.58 407.844 1537.9 407.763 1535.45 410.374C1534.38 411.524 1533.39 412.743 1532.36 413.927C1530.76 412.076 1528.56 410.853 1526.15 410.477C1524.2 407.901 1522.44 407.821 1520.22 410.017C1518.78 411.432 1517.92 413.329 1516.22 414.502C1515.7 413.615 1515.01 412.84 1514.18 412.223C1513.36 411.605 1512.43 411.156 1511.43 410.903C1512.45 409.631 1513.74 408.605 1515.21 407.901C1516.68 407.196 1518.29 406.831 1519.92 406.832C1528.46 406.556 1532.17 401.473 1533.73 393.918C1534.04 392.458 1534.36 390.997 1534.67 389.491Z" fill="#059E67"/>
<path d="M1468.96 380.878C1475.67 384.029 1481.87 382.281 1487.89 378.889C1489.04 378.222 1490.11 377.244 1491.55 378.245C1492.99 379.245 1492.7 380.487 1492.43 381.867C1491.54 387.865 1490.28 393.802 1488.65 399.645C1487.79 402.589 1486.35 404.797 1483.33 405.705C1481.2 403.601 1478.82 402.025 1475.7 401.979C1473.78 399.679 1472.06 399.541 1470.07 401.6C1468.77 402.945 1467.54 404.337 1466.27 405.705C1465.66 404.716 1464.82 403.892 1463.81 403.305C1462.81 402.717 1461.68 402.385 1460.52 402.336C1458.22 399.461 1456.55 399.403 1454.07 402.152C1452.92 403.486 1451.72 404.843 1450.53 406.188C1449.28 404.555 1447.91 403.095 1445.71 402.796C1447.32 400.254 1449.93 399.438 1452.61 398.748C1452.76 398.748 1452.92 398.679 1453.07 398.644C1464.31 396.632 1467.04 393.734 1468.59 382.246C1468.69 381.783 1468.81 381.326 1468.96 380.878V380.878Z" fill="#059E67"/>
<path d="M1378.31 352.371C1378.16 351.799 1377.85 351.281 1377.42 350.875C1376.99 350.468 1376.45 350.19 1375.87 350.071C1375.87 349.519 1375.87 348.921 1375.87 348.427C1375.87 347.127 1375.72 345.805 1374.18 345.449C1372.64 345.092 1371.77 346.253 1371.26 347.541C1370.74 348.829 1370.21 350.485 1369.7 351.957L1367.77 352.164C1367.48 351.444 1366.96 350.835 1366.31 350.422C1365.65 350.009 1364.88 349.814 1364.1 349.864C1364.1 349.312 1364 348.714 1364 348.22C1364 346.955 1363.8 345.794 1362.35 345.449C1360.9 345.104 1359.99 346.046 1359.5 347.3C1358.89 348.841 1358.35 350.405 1357.81 351.9L1355.06 352.325C1355.16 346.099 1356.6 339.968 1359.29 334.352C1362.78 331.555 1367.21 330.19 1371.67 330.534C1376.65 330.706 1381.65 330.534 1386.63 330.534C1389.86 330.624 1393.01 329.504 1395.45 327.395C1397.06 326.015 1398.55 324.485 1400.05 323.025C1402 323.898 1403.67 325.271 1404.91 327.004C1406.16 328.591 1408.03 330.085 1406.88 332.397C1405.73 334.708 1403.37 334.306 1401.4 334.386C1397.39 334.559 1393.35 334.386 1389.32 334.49C1388.01 334.455 1386.71 334.691 1385.49 335.183C1384.28 335.676 1383.18 336.414 1382.26 337.351C1381.35 338.288 1380.64 339.405 1380.17 340.63C1379.71 341.855 1379.51 343.163 1379.57 344.471C1379.68 346.991 1379.99 349.498 1380.5 351.969L1378.31 352.371Z" fill="#059E67"/>
<path d="M1380.58 351.934C1380.07 349.464 1379.76 346.956 1379.66 344.437C1379.59 343.129 1379.79 341.821 1380.26 340.596C1380.72 339.37 1381.43 338.254 1382.34 337.317C1383.26 336.379 1384.36 335.641 1385.57 335.149C1386.79 334.656 1388.09 334.42 1389.4 334.455C1393.43 334.375 1397.45 334.524 1401.48 334.352C1403.45 334.271 1405.84 334.582 1406.96 332.362C1408.07 330.143 1406.24 328.556 1404.99 326.969C1403.75 325.236 1402.08 323.863 1400.14 322.99C1399.62 321.921 1398.41 321.714 1397.63 320.978C1399.08 318.678 1400.92 316.746 1402.11 314.32C1403.31 311.893 1404.42 309.72 1405.57 307.317C1406.29 307.673 1406.3 308.467 1406.54 309.088C1408.89 315.301 1411.87 321.261 1415.41 326.877C1415.81 327.352 1416.06 327.935 1416.12 328.55C1416.17 329.166 1416.05 329.785 1415.75 330.327C1415.48 330.798 1415.32 331.339 1415.09 331.845C1412.45 337.594 1408.19 340.722 1401.67 340.446C1398.5 340.32 1395.34 340.538 1392.17 340.561C1387.57 340.561 1385.34 342.344 1384.35 346.828C1383.98 348.53 1383.74 350.278 1383.43 351.957L1380.58 351.934Z" fill="#3F764B"/>
<path d="M1344.83 228.604C1346.4 225.51 1348.73 223.05 1350.86 220.451C1357.79 212.111 1365.23 204.2 1373.12 196.762C1375.58 194.462 1378.25 192.289 1380.77 190.001C1381.92 189.012 1382.57 189.035 1382.78 190.576C1383.22 193.554 1384.72 196.509 1382.92 199.568C1382.44 200.479 1381.77 201.275 1380.96 201.903C1380.14 202.53 1379.2 202.973 1378.19 203.202C1375.98 203.796 1373.73 204.245 1371.45 204.547C1365.48 205.065 1361.82 209.331 1363.28 216.599C1363.78 218.597 1364.03 220.646 1364.05 222.705C1364.08 223.279 1363.99 223.853 1363.79 224.389C1363.58 224.926 1363.26 225.413 1362.86 225.82C1362.45 226.227 1361.96 226.543 1361.42 226.749C1360.89 226.956 1360.31 227.047 1359.74 227.017C1357.52 227.118 1355.3 227.018 1353.1 226.718C1350.1 226.2 1347.44 227.12 1344.83 228.604Z" fill="#750D00"/>
<path d="M1496.2 329.694C1494.97 336.594 1494.51 343.494 1496.2 350.393C1496.66 352.302 1497.35 354.165 1497.92 356.212C1487.42 357.842 1476.72 357.647 1466.29 355.637C1467.76 355.065 1469.33 354.818 1470.9 354.913C1473.25 354.812 1475.56 354.241 1477.7 353.233C1479.83 352.226 1481.73 350.802 1483.31 349.045C1484.88 347.288 1486.08 345.235 1486.85 343.005C1487.61 340.776 1487.92 338.416 1487.76 336.065C1487.65 333.627 1487.68 331.178 1487.65 328.74L1496.2 329.694Z" fill="#059E67"/>
<path d="M1495.71 259.307C1495.71 260.652 1495.71 261.998 1495.71 263.343C1495.82 265.459 1495.1 267.534 1493.71 269.132C1492.32 270.73 1490.36 271.726 1488.25 271.91C1486.22 272.168 1484.17 271.675 1482.49 270.524C1480.81 269.373 1479.6 267.644 1479.11 265.666C1478.37 263.09 1477.74 260.48 1477.05 257.881C1476.92 255.581 1475.67 253.638 1475.66 251.373C1481.7 253.339 1487.95 253.155 1494.18 253.166C1494.97 255.156 1494.63 257.398 1495.71 259.307Z" fill="#3F764B"/>
<path d="M1446.3 360.145C1446.02 358.109 1445.79 356.074 1445.47 354.039C1445.22 352.673 1445.28 351.269 1445.64 349.929C1445.99 348.588 1446.64 347.343 1447.54 346.282C1448.44 345.222 1449.56 344.373 1450.82 343.795C1452.08 343.218 1453.46 342.926 1454.84 342.942C1459.83 342.838 1464.81 342.516 1469.8 342.505C1474.8 342.493 1477.5 339.894 1479.12 335.536C1479.63 334.179 1479.52 332.523 1480.88 331.534C1482.44 338.434 1480.78 343.666 1476.12 346.736C1474.09 347.995 1471.75 348.66 1469.37 348.657C1465.18 348.806 1460.99 348.91 1456.8 349.048C1455.32 348.993 1453.87 349.466 1452.7 350.383C1451.54 351.299 1450.73 352.598 1450.44 354.05C1449.86 356.166 1449.49 358.339 1449.03 360.49L1446.3 360.145Z" fill="#3F764B"/>
<path d="M1368.72 191.817L1352.47 208.595C1351.7 208.469 1350.92 208.504 1350.17 208.698C1345.46 209.743 1340.86 211.253 1336.45 213.206C1336.9 210.173 1337.67 207.197 1338.75 204.329C1338.87 203.993 1339.06 203.689 1339.32 203.443C1339.57 203.197 1339.88 203.016 1340.23 202.914L1367.84 191.783C1368.07 191.72 1368.3 191.681 1368.54 191.668L1368.72 191.817Z" fill="#E16B71"/>
<path d="M1528.15 301.671L1531.19 301.222C1533.67 300.866 1535.29 301.728 1535.9 303.729C1536.51 305.73 1535.5 307.305 1533.12 308.237C1527.68 310.211 1522.59 313.016 1518.01 316.551C1511.92 321.255 1506.9 327.192 1503.26 333.972C1503 334.724 1502.52 335.383 1501.89 335.87C1502.81 325.371 1507.85 317.241 1516.23 311.065C1518.93 308.985 1521.95 307.369 1525.18 306.282C1525.68 306.186 1526.16 305.988 1526.59 305.701C1527.01 305.414 1527.38 305.044 1527.65 304.613C1527.93 304.181 1528.12 303.698 1528.2 303.192C1528.29 302.687 1528.27 302.169 1528.15 301.671V301.671Z" fill="#87B97A"/>
<path d="M1461.46 321.564C1463.57 324.656 1464.72 328.299 1464.77 332.04C1464.77 335.824 1462.75 338.077 1459.08 338.721C1455.41 339.365 1451.81 339.066 1448.17 339.112C1443.82 339.17 1439.46 339.204 1435.11 339.112C1432.26 338.935 1429.42 339.712 1427.06 341.32C1426.51 341.625 1425.93 341.865 1425.33 342.033C1427.29 337.709 1430.92 336.008 1435.39 335.881C1439.99 335.755 1444.71 335.881 1449.37 335.881C1456.92 335.881 1461.87 330.626 1461.51 323.025C1461.45 322.507 1461.46 322.036 1461.46 321.564Z" fill="#87B97A"/>
<path d="M1321.55 226.867C1320.78 231.184 1319.99 235.496 1319.16 239.804C1317.02 240.563 1314.97 241.546 1313.04 242.737C1312.08 243.298 1311.32 244.141 1310.87 245.149C1310.41 246.158 1310.28 247.283 1310.48 248.371C1310.63 250.09 1311.05 251.774 1311.73 253.362C1311.09 254.153 1310.24 254.751 1309.29 255.087C1308.34 251.476 1307.33 247.946 1306.54 244.358C1306.17 242.645 1307.41 241.587 1308.84 240.908C1310.95 239.862 1313.12 238.919 1315.25 237.884C1319.25 235.917 1320.52 233.031 1319.27 228.765C1318.58 226.35 1318.01 223.878 1317.13 221.532C1316.26 219.186 1317.13 217.702 1319.14 216.679C1321.44 215.529 1323.81 214.379 1326.37 213.16C1326.04 214.867 1325.4 216.497 1324.47 217.967C1323.64 218.298 1322.9 218.807 1322.28 219.458C1321.67 220.109 1321.21 220.886 1320.93 221.735C1320.65 222.584 1320.56 223.483 1320.67 224.37C1320.78 225.257 1321.08 226.109 1321.55 226.867V226.867Z" fill="#87B97A"/>
<path d="M1327.99 228.5C1329.08 231.674 1328.52 234.365 1329.23 236.895C1329.41 237.573 1329.51 238.275 1329.64 238.976C1329.71 239.692 1330.01 240.366 1330.5 240.894C1330.99 241.422 1331.63 241.774 1332.34 241.897C1334 242.242 1335.02 241.299 1335.9 240.08C1338.11 237.01 1340.34 233.94 1342.56 230.881C1342.71 230.591 1342.92 230.337 1343.18 230.138C1343.44 229.939 1343.74 229.8 1344.06 229.731C1341.57 234.928 1342.55 240.402 1341.64 245.623C1341.18 248.302 1339.75 249.142 1337.29 247.923C1335.95 247.244 1334.69 246.416 1333.41 245.623C1331.52 244.473 1329.58 243.392 1327.22 243.645C1325.88 243.783 1325.34 243.093 1325.46 241.805C1325.9 237.303 1326.75 232.85 1327.99 228.5V228.5Z" fill="#750D00"/>
<path d="M1557.52 266.908C1555.29 269.748 1552.53 270.737 1549.47 269.817C1546.41 268.897 1544.87 266.805 1544.58 263.286C1544.41 261.48 1544.29 259.664 1544.15 257.858C1544.5 255.961 1543.6 254.144 1543.77 252.246C1550.35 255.248 1554.52 260.537 1557.52 266.908Z" fill="#3F764B"/>
<path d="M1336.41 213.206C1340.82 211.253 1345.41 209.743 1350.12 208.698C1350.87 208.504 1351.66 208.469 1352.42 208.595C1346.51 215.495 1340.7 222.394 1335 230.156C1334.52 224.468 1335 218.739 1336.41 213.206V213.206Z" fill="#F39AA1"/>
<path d="M1397.63 320.978C1398.41 321.714 1399.62 321.921 1400.14 322.99C1398.59 324.451 1397.11 325.98 1395.53 327.36C1393.08 329.537 1389.9 330.705 1386.62 330.626C1381.62 330.626 1376.63 330.752 1371.66 330.626C1367.2 330.282 1362.77 331.646 1359.28 334.444C1359.97 332.507 1361.24 330.83 1362.92 329.638C1364.6 328.445 1366.6 327.795 1368.66 327.774C1373.07 327.774 1377.49 327.671 1381.91 327.774C1384.64 327.922 1387.36 327.47 1389.89 326.448C1392.42 325.427 1394.7 323.862 1396.56 321.863C1396.89 321.542 1397.25 321.246 1397.63 320.978Z" fill="#87B97A"/>
<path d="M1543.75 252.246C1543.58 254.144 1544.47 255.961 1544.13 257.858C1540.73 257.052 1537.26 256.601 1533.77 256.513C1532.98 254.079 1532.51 251.55 1532.39 248.992C1536.37 249.227 1540.25 250.338 1543.75 252.246Z" fill="#87B97A"/>
<path d="M1475.72 401.979C1478.83 401.979 1481.22 403.601 1483.34 405.705L1485.7 409.546C1482.8 410.489 1479.73 409.546 1476.79 410.374C1474.9 410.891 1472.92 411.087 1470.98 411.432C1471.65 409.258 1473.28 407.706 1474.7 406.073C1475.26 405.566 1475.65 404.907 1475.83 404.179C1476.01 403.451 1475.97 402.686 1475.72 401.979V401.979Z" fill="#394634"/>
<path d="M1311.73 253.362C1311.05 251.774 1310.63 250.09 1310.48 248.371C1310.28 247.283 1310.41 246.158 1310.87 245.149C1311.32 244.141 1312.08 243.298 1313.04 242.736C1314.97 241.546 1317.02 240.563 1319.16 239.804C1318.98 240.557 1318.9 241.331 1318.93 242.104C1319.89 247.221 1317.05 250.096 1313.07 252.361C1312.61 252.649 1312.17 253.04 1311.73 253.362Z" fill="#CCCCCC"/>
<path d="M1541.79 410.546C1544.88 410.098 1546.88 412.007 1548.93 413.835C1549.98 415.068 1550.83 416.457 1551.45 417.952C1546.98 418.193 1542.5 418.285 1538.17 419.654C1537.73 419.792 1537.18 420.056 1536.93 419.516C1536.89 419.329 1536.9 419.137 1536.95 418.953C1536.99 418.769 1537.07 418.596 1537.19 418.446C1538.1 417.16 1539.08 415.931 1540.14 414.766C1540.72 414.242 1541.18 413.587 1541.47 412.854C1541.76 412.121 1541.87 411.33 1541.79 410.546V410.546Z" fill="#394634"/>
<path d="M1495.71 259.307C1494.63 257.398 1494.97 255.156 1494.23 253.166L1503.71 252.016C1503.87 254.316 1505.6 256.041 1505.6 258.341C1502.28 258.421 1498.98 258.744 1495.71 259.307V259.307Z" fill="#87B97A"/>
<path d="M1511.43 410.903C1512.43 411.156 1513.36 411.605 1514.18 412.223C1515.01 412.84 1515.7 413.615 1516.22 414.502C1515.43 416.802 1514.49 418.791 1511.43 418.699C1509.95 418.84 1508.49 419.18 1507.09 419.711C1506.56 419.838 1505.94 420.16 1505.59 419.631C1505.4 419.366 1505.58 418.722 1505.83 418.331C1507.26 415.525 1508.77 412.777 1511.43 410.903Z" fill="#394634"/>
<path d="M1445.72 402.796C1447.92 403.095 1449.29 404.555 1450.54 406.188C1450.28 407.461 1449.57 408.598 1448.54 409.392C1447.51 410.185 1446.23 410.583 1444.93 410.512C1443.84 410.68 1442.77 410.93 1441.73 411.259C1441.1 411.374 1440.35 412.11 1439.81 411.363C1439.42 410.822 1439.93 410.144 1440.24 409.626C1441.75 407.096 1442.84 404.222 1445.72 402.796Z" fill="#394634"/>
<path d="M1526.15 410.477C1528.56 410.853 1530.76 412.076 1532.36 413.927L1530.21 417.561C1529.97 417.975 1529.65 418.412 1529.16 418.423C1526.49 418.492 1523.99 419.516 1521.18 419.93C1521.9 417.958 1523.09 416.185 1524.63 414.755C1525.21 414.217 1525.65 413.547 1525.91 412.802C1526.17 412.057 1526.26 411.26 1526.15 410.477V410.477Z" fill="#394634"/>
<path d="M1460.53 402.336C1461.69 402.385 1462.82 402.717 1463.82 403.305C1464.83 403.892 1465.67 404.716 1466.28 405.705C1465.36 408.545 1463.83 410.489 1460.46 410.546C1458.75 410.753 1457.07 411.139 1455.44 411.696C1455.93 409.996 1456.87 408.462 1458.17 407.257C1459.4 405.843 1460.82 404.498 1460.53 402.336Z" fill="#394634"/>
<path d="M1496.2 329.694L1487.61 328.717C1486.85 326.854 1487.16 324.911 1487.12 322.967L1497.63 324.876L1496.2 329.694Z" fill="#87B97A"/>
<path d="M1380.58 351.934L1383.44 352.015C1383.28 356.358 1383.52 360.707 1384.14 365.009C1379.66 361.939 1378.69 357.293 1378.31 352.36L1380.58 351.934Z" fill="#394634"/>
<path d="M1350.19 245.577L1347.89 248.038C1348.28 243.116 1348.58 238.838 1349.04 234.675C1349.18 233.295 1350.3 233.077 1351.52 233.1C1354.87 233.1 1358.23 233.1 1361.88 233.1C1361.62 233.944 1361.05 234.658 1360.28 235.101C1358.55 235.101 1356.83 234.997 1355.1 235.101C1353.99 235.075 1352.91 235.47 1352.08 236.205C1351.25 236.941 1350.72 237.963 1350.61 239.068C1350.21 241.212 1350.06 243.398 1350.19 245.577V245.577Z" fill="#87B97A"/>
<path d="M1350.19 245.577C1350.07 243.385 1350.23 241.187 1350.65 239.034C1350.76 237.929 1351.28 236.906 1352.11 236.171C1352.95 235.435 1354.03 235.041 1355.14 235.066C1356.86 235.009 1358.59 235.066 1360.31 235.066C1357.09 238.746 1353.72 242.25 1350.19 245.577Z" fill="#CCCCCC"/>
<path d="M1336.35 257.249L1334.97 257.364C1334.38 255.443 1332.51 255.064 1331.07 254.19C1327.62 252.143 1324.16 253.212 1322.08 256.777C1320.89 256.866 1319.69 256.706 1318.56 256.306C1321.47 254.144 1324.12 252.154 1326.79 250.188C1327.66 249.556 1328.44 250.096 1329.18 250.533C1330.88 251.545 1332.57 252.557 1334.24 253.592C1336.04 254.605 1338.09 255.106 1340.16 255.041C1339.3 255.965 1338.2 256.624 1336.98 256.938L1336.35 257.249Z" fill="#87B97A"/>
<path d="M1475.7 251.372C1475.7 253.672 1476.97 255.639 1477.1 257.881C1470.77 255.409 1467.29 250.568 1465.72 244.151C1468.37 247.372 1471.81 249.858 1475.7 251.372V251.372Z" fill="#87B97A"/>
<path d="M1446.3 360.145L1449.02 360.49C1449 364.188 1449.3 367.881 1449.91 371.529C1450 372.058 1450.23 372.759 1449.69 373.047C1448.97 373.426 1448.54 372.656 1448.18 372.219C1445.44 369.005 1444.04 364.857 1444.28 360.639L1446.3 360.145Z" fill="#394634"/>
<path d="M1355 352.371L1357.75 351.946L1361.11 352.509C1360.26 356.189 1359.34 359.857 1359.72 364.388C1358.17 362.8 1356.95 360.919 1356.14 358.855C1355.33 356.792 1354.94 354.587 1355 352.371V352.371Z" fill="#394634"/>
<path d="M1372.06 221.865C1371.89 222.118 1371.73 222.383 1371.53 222.624C1371.34 222.866 1371.13 223.061 1370.81 223.406C1370.27 220.117 1369.77 216.989 1369.25 213.85C1368.94 211.999 1370.01 211.251 1371.56 210.941C1374.93 210.274 1378.31 209.664 1381.78 209.009C1381.34 210.113 1380.61 211.075 1379.66 211.792C1379.02 211.792 1378.39 211.792 1377.77 211.792C1372.94 212.137 1370.95 214.736 1371.81 219.531C1371.96 220.29 1371.98 221.083 1372.06 221.865Z" fill="#87B97A"/>
<path d="M1421.02 360.582C1421.97 360.455 1423.02 360.823 1423.86 360.053C1424.92 360.428 1426.04 360.596 1427.16 360.547C1425.75 364.181 1425.52 368.033 1425.15 372.518C1423.68 370.915 1422.56 369.029 1421.85 366.976C1421.14 364.924 1420.86 362.748 1421.02 360.582V360.582Z" fill="#394634"/>
<path d="M1392 192.772C1391.66 193.921 1391.12 195 1390.4 195.957C1389.68 192.312 1388.99 188.908 1388.32 185.504C1388.21 184.952 1388.32 184.379 1388.63 183.909C1388.94 183.439 1389.42 183.111 1389.98 182.997C1392.92 181.848 1395.89 180.882 1399.1 179.743C1398.91 180.878 1398.38 181.93 1397.59 182.767C1395.91 182.63 1394.61 183.63 1393.24 184.32C1392.53 184.725 1391.91 185.289 1391.44 185.969C1390.98 186.648 1390.67 187.426 1390.55 188.242C1390.43 189.057 1390.5 189.89 1390.75 190.675C1391 191.46 1391.43 192.177 1392 192.772V192.772Z" fill="#87B97A"/>
<path d="M1367.71 352.153L1369.65 351.946L1372.08 352.107C1370.93 356.706 1371.76 361.237 1372.08 365.791C1369.09 363.491 1368.15 360.191 1367.8 356.66C1367.63 355.165 1367.72 353.648 1367.71 352.153Z" fill="#394634"/>
<path d="M1433.42 360.501C1433.81 360.611 1434.23 360.627 1434.63 360.547C1435.03 360.467 1435.4 360.294 1435.72 360.041L1437.67 360.582C1436.93 364.968 1436.99 369.45 1437.83 373.817C1433.8 370.23 1433.19 365.515 1433.42 360.501Z" fill="#394634"/>
<path d="M1322.08 256.8C1324.12 253.235 1327.66 252.2 1331.07 254.213C1332.5 255.075 1334.38 255.466 1334.97 257.387C1331.52 258.686 1328.22 257.387 1324.85 257.237C1323.92 257.142 1323 256.996 1322.08 256.8V256.8Z" fill="#CCCCCC"/>
<path d="M1372.06 221.865C1371.98 221.083 1371.96 220.29 1371.82 219.565C1370.96 214.77 1372.97 212.171 1377.78 211.826C1378.4 211.826 1379.03 211.826 1379.67 211.826C1377.39 215.363 1374.85 218.719 1372.06 221.865V221.865Z" fill="#CCCCCC"/>
<path d="M1392 192.772C1391.43 192.177 1391 191.46 1390.75 190.675C1390.5 189.89 1390.43 189.057 1390.55 188.242C1390.67 187.426 1390.98 186.648 1391.44 185.969C1391.91 185.289 1392.53 184.725 1393.24 184.32C1394.61 183.63 1395.91 182.63 1397.59 182.767C1396.04 186.268 1394.17 189.618 1392 192.772V192.772Z" fill="#CCCCCC"/>
<path d="M1361.11 352.509L1357.75 351.946C1358.31 350.393 1358.83 348.829 1359.44 347.346C1359.93 346.093 1360.75 345.127 1362.29 345.495C1363.83 345.863 1363.95 347.001 1363.94 348.266C1363.94 348.806 1364.01 349.416 1364.04 349.91C1363.39 350.101 1362.79 350.433 1362.28 350.882C1361.78 351.331 1361.38 351.887 1361.11 352.509V352.509Z" fill="#3F764B"/>
<path d="M1427.16 360.547C1426.04 360.596 1424.92 360.428 1423.86 360.053C1423.99 358.397 1424.49 356.792 1425.31 355.349C1425.85 354.199 1426.56 353.28 1428.03 353.671C1429.49 354.061 1429.65 355.016 1429.6 356.235C1429.6 356.867 1429.6 357.5 1429.6 358.121C1429.03 358.305 1428.51 358.62 1428.09 359.042C1427.67 359.464 1427.35 359.979 1427.16 360.547V360.547Z" fill="#3F764B"/>
<path d="M1372.08 352.107L1369.65 351.946C1370.15 350.474 1370.61 348.979 1371.2 347.53C1371.79 346.081 1372.45 345.046 1374.12 345.437C1375.79 345.828 1375.78 347.116 1375.81 348.415C1375.81 348.967 1375.81 349.508 1375.81 350.06C1375.06 349.984 1374.3 350.139 1373.63 350.504C1372.96 350.869 1372.43 351.428 1372.08 352.107V352.107Z" fill="#3F764B"/>
<path d="M1437.69 360.582L1435.75 360.041C1435.89 358.301 1436.42 356.615 1437.3 355.108C1437.45 354.586 1437.8 354.142 1438.27 353.867C1438.74 353.592 1439.3 353.506 1439.83 353.625C1440.37 353.745 1440.83 354.062 1441.14 354.512C1441.45 354.963 1441.57 355.512 1441.49 356.051C1441.49 356.764 1441.49 357.477 1441.49 358.19C1440.7 358.219 1439.93 358.456 1439.27 358.876C1438.6 359.296 1438.06 359.884 1437.69 360.582V360.582Z" fill="#3F764B"/>
<path d="M1321.55 226.867C1321.07 226.109 1320.77 225.254 1320.66 224.365C1320.55 223.475 1320.64 222.572 1320.92 221.721C1321.2 220.869 1321.66 220.089 1322.28 219.437C1322.89 218.784 1323.64 218.274 1324.47 217.944L1321.55 226.867Z" fill="#CCCCCC"/>
<path d="M1419.76 337.562C1419.76 337.066 1419.88 336.576 1420.1 336.132C1420.32 335.688 1420.64 335.303 1421.04 335.007C1421.04 335.007 1421.41 335.147 1421.44 335.249C1421.65 336.514 1420.58 336.974 1419.76 337.562Z" fill="black"/>
<path d="M1729.64 189.587L1729.2 189.391C1729.66 189.165 1730.17 189.041 1730.68 189.029C1731.19 189.017 1731.71 189.117 1732.18 189.322L1729.64 189.587Z" fill="#3F764B"/>
<path d="M1425.37 341.987L1424.95 342.919L1425.37 341.987Z" fill="#87B97A"/>
<path d="M1726.34 194.232C1726.5 194.062 1726.69 193.929 1726.9 193.844C1727.12 193.758 1727.35 193.722 1727.58 193.738C1727.31 194.267 1726.82 194.232 1726.34 194.232Z" fill="#059E67"/>
<path d="M1563.32 331.719H1562.98C1563.18 331.454 1563.26 331.626 1563.33 331.822C1563.34 331.776 1563.32 331.719 1563.32 331.719Z" fill="#059E67"/>
<path d="M1368.55 191.703C1368.7 191.703 1368.99 191.53 1368.99 191.541C1369.13 191.818 1368.9 191.806 1368.73 191.853L1368.55 191.703Z" fill="#059E67"/>
<path d="M1372.04 365.791L1372.16 365.871L1372.06 365.779L1372.04 365.791Z" fill="#394634"/>
<path d="M1336.35 257.249L1336.98 256.938L1336.35 257.249Z" fill="#CCCCCC"/>
<path d="M1470.98 411.432L1470.85 411.547L1470.96 411.409L1470.98 411.432Z" fill="#394634"/>
<path d="M1428.72 122.419C1429.63 126.434 1429.6 130.605 1428.63 134.608C1426.07 143.681 1419.14 148.028 1409.92 146.303C1409.81 146.188 1409.72 146.027 1409.59 145.97C1399.24 141.577 1396.21 126.651 1402.89 117.221C1408.98 108.654 1420.09 108.735 1425.97 117.44C1427.01 119.038 1427.81 120.763 1428.72 122.419ZM1408.83 119.452C1406.59 119.452 1405.21 120.97 1405.22 123.408C1405.18 123.917 1405.24 124.429 1405.4 124.914C1405.56 125.399 1405.82 125.846 1406.16 126.228C1406.49 126.61 1406.91 126.919 1407.37 127.136C1407.83 127.353 1408.33 127.473 1408.85 127.49C1409.87 127.431 1410.84 126.969 1411.53 126.205C1412.22 125.442 1412.58 124.437 1412.54 123.408C1412.58 122.9 1412.51 122.389 1412.34 121.908C1412.17 121.426 1411.91 120.986 1411.56 120.613C1411.21 120.241 1410.79 119.946 1410.32 119.746C1409.85 119.546 1409.34 119.446 1408.83 119.452V119.452Z" fill="#090805"/>
<path d="M1428.72 122.419C1427.81 120.763 1427.01 119.038 1425.97 117.486C1420.09 108.781 1408.98 108.7 1402.89 117.267C1396.21 126.651 1399.18 141.577 1409.59 146.016C1409.72 146.073 1409.81 146.234 1409.92 146.349C1405.78 146.706 1402.8 144.337 1400.25 141.692C1391.87 132.987 1392.45 116.899 1401.25 109.057C1402.8 107.639 1404.62 106.547 1406.59 105.843C1408.57 105.139 1410.67 104.839 1412.77 104.96C1414.86 105.082 1416.91 105.621 1418.8 106.548C1420.68 107.475 1422.36 108.77 1423.73 110.356C1426.17 113.19 1427.89 116.565 1428.75 120.2C1428.92 120.913 1429.31 121.672 1428.72 122.419Z" fill="#3F764B"/>
<path d="M1397.75 90.0368C1398.39 90.0368 1399.02 90.0368 1399.65 90.0368C1400.03 90.0307 1400.41 90.1 1400.76 90.2407C1401.11 90.3815 1401.43 90.5907 1401.7 90.8563C1401.96 91.1219 1402.18 91.4385 1402.32 91.7874C1402.47 92.1364 1402.54 92.5108 1402.54 92.8887C1402.67 93.6355 1402.51 94.4052 1402.08 95.03C1401.65 95.6547 1400.99 96.0837 1400.24 96.2235C1397.79 96.7754 1395.35 97.3734 1392.93 98.0864C1391.33 98.5263 1389.86 99.3802 1388.69 100.563C1387.52 101.745 1386.67 103.215 1386.25 104.825H1386.33C1386.16 104.922 1386.03 105.07 1385.95 105.247C1385.86 105.425 1385.84 105.623 1385.88 105.814C1385.26 106.389 1385.27 107.24 1384.99 107.964C1384.21 109.977 1382.69 110.92 1381.02 110.345C1379.01 109.678 1378.47 108.171 1378.8 106.216C1378.91 105.607 1379.05 104.997 1379.16 104.388C1379.62 103.491 1380.13 102.606 1380.52 101.674C1381.38 99.3441 1382.78 97.2521 1384.61 95.5721C1386.44 93.8921 1388.64 92.6726 1391.03 92.0147L1397.75 90.0368Z" fill="#090805"/>
<path d="M1397.75 90.0369L1391 91.9918C1388.6 92.6496 1386.4 93.8692 1384.57 95.5492C1382.74 97.2292 1381.34 99.3212 1380.48 101.651C1380.09 102.583 1379.59 103.468 1379.13 104.365C1375.93 101.87 1375.03 97.2815 1376.94 93.1532C1382.67 90.531 1388.95 89.3242 1395.25 89.6344C1396.1 89.5307 1396.97 89.6702 1397.75 90.0369V90.0369Z" fill="#3F764B"/>
<path d="M1385.86 105.791C1385.82 105.6 1385.84 105.402 1385.92 105.224C1386 105.047 1386.14 104.899 1386.31 104.802L1385.86 105.791Z" fill="#87B97A"/>
<path d="M1292.58 178.501C1292.34 179.858 1291.9 181.353 1289.78 181.353C1289.37 181.35 1288.96 181.256 1288.58 181.08C1288.2 180.904 1287.86 180.648 1287.59 180.331C1287.32 180.014 1287.12 179.642 1287.01 179.241C1286.9 178.84 1286.87 178.419 1286.93 178.007C1287.01 176.224 1287.79 174.925 1289.73 174.787C1291.33 174.672 1292.64 176.305 1292.58 178.501Z" fill="#090805"/>
<path d="M1271.19 176.19C1270.93 177.788 1270.49 179.306 1268.48 179.502C1266.77 179.663 1265.44 178.248 1265.44 176.293C1265.44 174.339 1266.67 172.752 1268.28 172.844C1270.19 173.051 1270.87 174.454 1271.19 176.19Z" fill="#090805"/>
<path d="M1408.83 119.452C1409.34 119.446 1409.85 119.546 1410.32 119.746C1410.79 119.946 1411.21 120.241 1411.56 120.613C1411.91 120.986 1412.17 121.426 1412.34 121.907C1412.51 122.389 1412.58 122.9 1412.54 123.408C1412.58 124.437 1412.22 125.442 1411.53 126.205C1410.84 126.969 1409.87 127.431 1408.85 127.49C1408.33 127.473 1407.83 127.353 1407.37 127.136C1406.91 126.919 1406.49 126.61 1406.16 126.228C1405.82 125.846 1405.56 125.399 1405.4 124.914C1405.24 124.429 1405.18 123.917 1405.22 123.408C1405.21 120.97 1406.59 119.452 1408.83 119.452Z" fill="white"/>
</g>
<defs>
<filter id="filter0_d_9_2" x="1244.31" y="77.1584" width="519.371" height="367.842" filterUnits="userSpaceOnUse" color-interpolation-filters="sRGB">
<feFlood flood-opacity="0" result="BackgroundImageFix"/>
<feColorMatrix in="SourceAlpha" type="matrix" values="0 0 0 0 0 0 0 0 0 0 0 0 0 0 0 0 0 0 127 0" result="hardAlpha"/>
<feOffset dx="4" dy="6"/>
<feGaussianBlur stdDeviation="4.5"/>
<feColorMatrix type="matrix" values="0 0 0 0 0 0 0 0 0 0 0 0 0 0 0 0 0 0 0.25 0"/>
<feBlend mode="normal" in2="BackgroundImageFix" result="effect1_dropShadow_9_2"/>
<feBlend mode="normal" in="SourceGraphic" in2="effect1_dropShadow_9_2" result="shape"/>
</filter>
</defs>
</svg>
